<svg xmlns="http://www.w3.org/2000/svg" xmlns:xlink="http://www.w3.org/1999/xlink" width="150" height="134" viewBox="0 0 150 134">
  <defs>
    <clipPath id="clip-path">
      <rect id="Image" width="150" height="134" transform="translate(221 1153)" fill="#fff"/>
    </clipPath>
    <linearGradient id="linear-gradient" x1="0.5" x2="0.5" y2="1" gradientUnits="objectBoundingBox">
      <stop offset="0" stop-color="#00e6ff"/>
      <stop offset="1" stop-color="#0068ff"/>
    </linearGradient>
  </defs>
  <g id="Mask_Group_4" data-name="Mask Group 4" transform="translate(-221 -1153)" clip-path="url(#clip-path)">
    <path id="backup" d="M63.7,85.672h19.77v13.18H79.082V90.066H68.1V134H46.131V90.066H35.148v8.787H30.754V85.672H46.131V76.885h-9.7l20.68-20.68,20.68,20.68H68.1v4.393H63.7V72.492h3.484L57.115,62.418,47.041,72.492h3.484v57.115H63.7Zm50.525-13.18a17.589,17.589,0,0,1-13.18,17v18.152H96.656V90.066H92.262v26.361H87.869V85.672h8.787A13.18,13.18,0,1,0,84.743,66.844l-3.97-1.884a17.573,17.573,0,0,1,6.984-7.572A17.544,17.544,0,0,0,58.58,46.241l-1.465,1.314L55.65,46.238A17.548,17.548,0,0,0,26.47,57.387a17.573,17.573,0,0,1,6.984,7.572l-3.97,1.884a13.181,13.181,0,1,0-11.91,18.83h8.787v30.754H21.967V90.066H17.574v17.574H13.18V89.487A17.54,17.54,0,0,1,6.59,58.8V39.877L14.9,38.489a43.59,43.59,0,0,1,3.857-9.3l-4.9-6.856L28.918,7.269l6.858,4.9a43.463,43.463,0,0,1,9.307-3.855L46.467,0h21.3l1.384,8.313a43.463,43.463,0,0,1,9.307,3.855l6.858-4.9L100.37,22.328l-4.9,6.856a43.682,43.682,0,0,1,3.857,9.3l8.311,1.388V58.8A17.536,17.536,0,0,1,114.23,72.492ZM71.9,37.426a19.725,19.725,0,0,0-29.576,0c.534-.04,1.065-.082,1.608-.082a21.882,21.882,0,0,1,13.18,4.42,21.882,21.882,0,0,1,13.18-4.42C70.838,37.344,71.369,37.386,71.9,37.426Zm12.631,5.19a28.529,28.529,0,0,0-54.839,0,21.916,21.916,0,0,1,6.311-3.767,24.083,24.083,0,0,1,42.216,0A21.945,21.945,0,0,1,84.534,42.616Zm18.712.983-7.46-1.244-.348-1.4a39.212,39.212,0,0,0-4.461-10.762l-.742-1.235,4.4-6.154-9.793-9.8-6.156,4.4-1.235-.744A39.089,39.089,0,0,0,66.684,12.2l-1.4-.35-1.244-7.46H50.189l-1.244,7.46-1.4.35A39.183,39.183,0,0,0,36.782,16.66l-1.235.744-6.156-4.4L19.6,22.8l4.4,6.154-.742,1.235a39.24,39.24,0,0,0-4.461,10.762l-.348,1.4L10.984,43.6V56.212a17.271,17.271,0,0,1,11.324-.623,21.707,21.707,0,0,1,1.9-5.875,32.918,32.918,0,0,1,65.818,0,21.757,21.757,0,0,1,1.9,5.875,17.271,17.271,0,0,1,11.324.623ZM21.967,125.213h4.393V120.82H21.967Zm0,8.787h4.393v-4.393H21.967Zm8.787-26.361h4.393v-4.393H30.754Zm0,8.787h4.393v-4.393H30.754Zm48.328-8.787h4.393v-4.393H79.082Zm0,8.787h4.393v-4.393H79.082Zm8.787,8.787h4.393V120.82H87.869Zm0,8.787h4.393v-4.393H87.869ZM54.918,13.18h4.393V8.787H54.918Zm27.44,9.547,3.105,3.105,3.106-3.105-3.106-3.106Zm-56.309-.163,3.106,3.106,3.106-3.106-3.106-3.106ZM15.377,52.721H19.77V48.328H15.377Zm79.082,0h4.393V48.328H94.459Zm2.2,63.7h4.393v-4.393H96.656Zm-83.475,0h4.393v-4.393H13.18Zm0,0" transform="translate(238.885 1153)" fill="url(#linear-gradient)"/>
  </g>
</svg>
