<svg xmlns="http://www.w3.org/2000/svg" xmlns:xlink="http://www.w3.org/1999/xlink" width="150" height="134" viewBox="0 0 150 134">
  <defs>
    <clipPath id="clip-path">
      <rect id="Image" width="150" height="134" transform="translate(221 1153)" fill="#fff"/>
    </clipPath>
    <linearGradient id="linear-gradient" x1="0.5" x2="0.5" y2="1" gradientUnits="objectBoundingBox">
      <stop offset="0" stop-color="#00e6ff"/>
      <stop offset="1" stop-color="#0068ff"/>
    </linearGradient>
  </defs>
  <g id="Mask_Group_1" data-name="Mask Group 1" transform="translate(-221 -1153)" clip-path="url(#clip-path)">
    <path id="bandwidth" d="M67,64.839a34.581,34.581,0,1,0,34.581,34.581A34.622,34.622,0,0,0,67,64.839Zm30.148,36.742a30.223,30.223,0,0,1-60.3,0h6.374V97.258H36.852A30.08,30.08,0,0,1,44.16,79.635l4.5,4.5,3.056-3.056-4.5-4.5a30.085,30.085,0,0,1,17.623-7.308v6.374h4.323V69.271a30.08,30.08,0,0,1,17.623,7.308l-4.5,4.5,3.056,3.056,4.5-4.5a30.085,30.085,0,0,1,7.308,17.623H90.774v4.323Zm-23.664-9.54L67,85.557l-6.484,6.484v18.985a8.645,8.645,0,1,0,12.968,0ZM67,121.032a4.327,4.327,0,0,1-4.323-4.323,4.266,4.266,0,0,1,1.448-3.2l.713-.644V93.83L67,91.669l2.161,2.161v19.039l.713.644a4.266,4.266,0,0,1,1.448,3.2A4.327,4.327,0,0,1,67,121.032ZM23.774,105.9H29.61L15.129,131.969.648,105.9H6.484V73.484h4.323v36.742H8l7.132,12.838,7.132-12.838H19.452V73.484h4.323Zm95.1-39.033,14.481,26.065h-5.836v32.419h-4.323V88.613H126l-7.132-12.838-7.132,12.838h2.809v36.742h-4.323V92.935H104.39ZM116.71,30.258h-4.323V25.935h4.323Zm-8.645,0h-4.323V25.935h4.323Zm-8.645,0H95.1V25.935h4.323ZM17.29,25.935h4.323v4.323H17.29Zm8.645,0h4.323v4.323H25.935Zm8.645,0H38.9v4.323H34.581ZM105.949,0a27.944,27.944,0,0,0-15.56,4.712L67,20.305,43.611,4.712a28.083,28.083,0,1,0-15.56,51.482,27.944,27.944,0,0,0,15.56-4.712L67,35.888,90.389,51.482A28.083,28.083,0,1,0,105.949,0Zm0,51.871a23.65,23.65,0,0,1-13.162-3.986L70.9,33.29l3.894-2.6L95.183,44.29a19.452,19.452,0,1,0,0-32.386L41.211,47.885a23.773,23.773,0,1,1,0-39.577L63.1,22.9l-3.894,2.6L38.817,11.9a19.452,19.452,0,1,0,0,32.386L92.789,8.309a23.76,23.76,0,1,1,13.16,43.562ZM78.689,28.1l18.9-12.6a15.128,15.128,0,1,1,0,25.193Zm-23.377,0-18.9,12.6a15.128,15.128,0,1,1,0-25.193Zm0,0" transform="translate(229 1153)" fill="url(#linear-gradient)"/>
  </g>
</svg>
