<svg xmlns="http://www.w3.org/2000/svg" xmlns:xlink="http://www.w3.org/1999/xlink" width="513.185" height="529.134" viewBox="0 0 513.185 529.134">
  <defs>
    <linearGradient id="linear-gradient" y1="0.5" x2="1" y2="0.5" gradientUnits="objectBoundingBox">
      <stop offset="0" stop-color="#5761d7"/>
      <stop offset="0.073" stop-color="#5471d8"/>
      <stop offset="0.279" stop-color="#4d9bda"/>
      <stop offset="0.48" stop-color="#48bddd"/>
      <stop offset="0.672" stop-color="#44d4de"/>
      <stop offset="0.849" stop-color="#42e3df"/>
      <stop offset="1" stop-color="#42e8e0"/>
    </linearGradient>
    <linearGradient id="linear-gradient-8" y1="0.5" x2="1" y2="0.5" gradientUnits="objectBoundingBox">
      <stop offset="0" stop-color="#5761d7"/>
      <stop offset="0.178" stop-color="#5b65d8"/>
      <stop offset="0.388" stop-color="#6a72de"/>
      <stop offset="0.613" stop-color="#8188e8"/>
      <stop offset="0.849" stop-color="#a2a6f5"/>
      <stop offset="1" stop-color="#bcbeff"/>
    </linearGradient>
    <linearGradient id="linear-gradient-12" x1="-0.247" y1="0.5" x2="1.034" y2="0.5" gradientUnits="objectBoundingBox">
      <stop offset="0" stop-color="#0068ff"/>
      <stop offset="0.139" stop-color="#006fff"/>
      <stop offset="0.341" stop-color="#0082ff"/>
      <stop offset="0.584" stop-color="#00a2ff"/>
      <stop offset="0.854" stop-color="#00cfff"/>
      <stop offset="1" stop-color="#00eaff"/>
    </linearGradient>
    <linearGradient id="linear-gradient-13" y1="0.5" x2="1" y2="0.5" gradientUnits="objectBoundingBox">
      <stop offset="0" stop-color="#42e8e0"/>
      <stop offset="0.151" stop-color="#42e3df"/>
      <stop offset="0.328" stop-color="#44d4de"/>
      <stop offset="0.52" stop-color="#48bddd"/>
      <stop offset="0.721" stop-color="#4d9bda"/>
      <stop offset="0.927" stop-color="#5471d8"/>
      <stop offset="1" stop-color="#5761d7"/>
    </linearGradient>
  </defs>
  <g id="Illustration" transform="translate(-224.961 -73.142)">
    <g id="Group_24" data-name="Group 24" transform="translate(260.976 73.142)">
      <path id="Path_1108" data-name="Path 1108" d="M557.875,249.456V200.372c-1.138-16.728-7.756-32.673-18.868-47.25v49.084c11.112,14.576,17.73,30.522,18.868,47.25Zm-24.548-54.144V146.229a140.518,140.518,0,0,0-13-12.8v49.084a140.5,140.5,0,0,1,13,12.8Zm-21.037-19.344V126.884a189.742,189.742,0,0,0-16.562-11.268V164.7a189.754,189.754,0,0,1,16.562,11.27Zm-27.682-3.086V94.79c45.219,23.989,73.442,58.3,73.442,96.255v78.09c0-37.956-28.223-72.264-73.442-96.253Z" transform="translate(-102.839 -59.958)" fill="#42e8e0" opacity="0.502"/>
      <path id="Path_1109" data-name="Path 1109" d="M490.779,148.577v-14.1q-5.175-.992-10.46-1.844v14.1q5.283.852,10.46,1.844Zm-18.816-17.2V118.9q-5.363-.739-10.824-1.334v12.48q5.459.594,10.824,1.334Zm36.924,7.062V121.429q-4.967-1.231-10.055-2.33v17.016q5.085,1.1,10.055,2.328ZM452.5,129.207v-25.12q-5.525-.475-11.138-.8v25.119q5.612.323,11.138.8Zm-40.411-1.416V102.673q-5.679.087-11.292.33v25.119q5.611-.241,11.292-.33Zm-20.074.809V97.007q-5.551.364-11.022.88v31.592q5.469-.514,11.022-.879Zm40.472-.6V91.858q-5.073-.179-10.2-.23c-.4,0-.809-.008-1.213-.01v36.138l1.213.01q5.131.051,10.2.232Zm-60.046,2.385V85.176q-5.4.63-10.718,1.408V131.79q5.312-.777,10.718-1.408ZM338.7,81.308a384.032,384.032,0,0,1,83.58-8.145c39.246.393,76.01,6.435,107.975,16.752v78.092c-31.965-10.317-68.729-16.361-107.975-16.753A384.032,384.032,0,0,0,338.7,159.4V81.308Z" transform="translate(-191.703 -73.142)" fill="#42e8e0" opacity="0.502"/>
      <path id="Path_1110" data-name="Path 1110" d="M261.481,178.81V163.088a95.014,95.014,0,0,0-11.1,20.948V230.6a94.978,94.978,0,0,1,11.1-20.948V193.932q2.03-2.92,4.295-5.773v8.48a127.318,127.318,0,0,1,9.394-10.534v-8.48c14.731-14.824,34.35-27.828,57.576-38.3V124.2q-6.2,2.795-12.049,5.826-2.925,1.516-5.759,3.089a178.734,178.734,0,0,0-38.44,28.065q-.671.657-1.329,1.319v-8.48a127.333,127.333,0,0,0-9.394,10.536v8.478q-2.262,2.85-4.295,5.773Zm-14.137-.491c8.88-38.109,46.213-70.928,99.167-91.353v78.09c-52.954,20.425-90.287,53.245-99.167,91.353v-78.09Z" transform="translate(-247.344 -64.723)" fill="#42e8e0" opacity="0.502"/>
      <path id="Path_1111" data-name="Path 1111" d="M269.818,148.408q.659-.661,1.329-1.319V162.21a168.752,168.752,0,0,1,27.5-21.563q5.276-3.357,10.94-6.5V119.024q2.834-1.574,5.759-3.089v15.122q5.846-3.029,12.049-5.826v0c-23.227,10.472-42.846,23.476-57.576,38.3V148.408ZM256.13,164.716q2.03-2.92,4.294-5.773v15.122q-2.262,2.85-4.294,5.773V164.716Z" transform="translate(-241.993 -50.629)" fill="#42e8e0" opacity="0.753"/>
      <path id="Path_1112" data-name="Path 1112" d="M292.932,115.934q5.846-3.029,12.048-5.826V125.23q-6.2,2.795-12.048,5.826V115.934Z" transform="translate(-219.579 -50.629)" fill="#42e8e0" opacity="0.878"/>
      <path id="Path_1113" data-name="Path 1113" d="M265.463,141.253a168.752,168.752,0,0,1,27.5-21.563v15.122a168.753,168.753,0,0,0-27.5,21.563V141.253Z" transform="translate(-236.309 -44.793)" fill="#42e8e0" opacity="0.878"/>
      <path id="Path_1114" data-name="Path 1114" d="M282.554,122.151q5.276-3.357,10.94-6.5v15.122q-5.662,3.142-10.94,6.5V122.151Z" transform="translate(-225.9 -47.254)" fill="#42e8e0" opacity="0.973"/>
      <path id="Path_1115" data-name="Path 1115" d="M249.233,155.223a95.013,95.013,0,0,1,11.1-20.948V150a95.025,95.025,0,0,0-11.1,20.95v15.122a95.023,95.023,0,0,1,11.1-20.95v15.724a94.977,94.977,0,0,0-11.1,20.948V155.223Z" transform="translate(-246.193 -35.91)" fill="#42e8e0" opacity="0.753"/>
      <path id="Path_1116" data-name="Path 1116" d="M249.233,165a95.024,95.024,0,0,1,11.1-20.95v15.122a95.024,95.024,0,0,0-11.1,20.95V165Z" transform="translate(-246.193 -29.959)" fill="#42e8e0" opacity="0.878"/>
      <path id="Path_1117" data-name="Path 1117" d="M258.8,162.777a127.334,127.334,0,0,1,9.394-10.534v8.48a127.329,127.329,0,0,0-9.394,10.534v-8.48Zm0-23.6a127.344,127.344,0,0,1,9.394-10.536v8.48a127.332,127.332,0,0,0-9.394,10.534v-8.478Z" transform="translate(-240.367 -39.341)" fill="#42e8e0" opacity="0.753"/>
      <path id="Path_1118" data-name="Path 1118" d="M258.8,144.445a127.329,127.329,0,0,1,9.394-10.534v15.122a127.329,127.329,0,0,0-9.394,10.534V144.445Z" transform="translate(-240.367 -36.132)" fill="#42e8e0" opacity="0.878"/>
      <path id="Path_1119" data-name="Path 1119" d="M518.417,131.043c11.112,14.576,17.73,30.522,18.868,47.25v49.084c-1.138-16.728-7.756-32.673-18.868-47.25V131.043Z" transform="translate(-82.249 -37.878)" fill="#42e8e0" opacity="0.753"/>
      <path id="Path_1120" data-name="Path 1120" d="M506.81,118.8a140.51,140.51,0,0,1,13,12.8v49.082a140.5,140.5,0,0,0-13-12.8V118.8Z" transform="translate(-89.318 -45.334)" fill="#42e8e0"/>
      <path id="Path_1121" data-name="Path 1121" d="M491.52,107.733A189.735,189.735,0,0,1,508.082,119v49.084a189.749,189.749,0,0,0-16.562-11.27V107.733Z" transform="translate(-98.63 -52.075)" fill="#42e8e0" opacity="0.753"/>
      <path id="Path_1122" data-name="Path 1122" d="M438.221,101.7q5.085,1.1,10.055,2.33v17.014q-4.967-1.231-10.055-2.328V101.7Z" transform="translate(-131.092 -55.747)" fill="#42e8e0" opacity="0.753"/>
      <path id="Path_1123" data-name="Path 1123" d="M426.715,110.114q5.283.852,10.46,1.844v14.1q-5.175-.992-10.46-1.844v-14.1Z" transform="translate(-138.099 -50.625)" fill="#42e8e0" opacity="0.753"/>
      <path id="Path_1124" data-name="Path 1124" d="M414.795,100.752q5.459.594,10.824,1.334v12.48q-5.363-.739-10.824-1.334v-12.48Z" transform="translate(-145.359 -56.327)" fill="#42e8e0" opacity="0.753"/>
      <path id="Path_1125" data-name="Path 1125" d="M402.5,91.878q5.612.323,11.138.8V117.8q-5.525-.475-11.138-.8V91.878Z" transform="translate(-152.845 -61.731)" fill="#42e8e0" opacity="0.753"/>
      <path id="Path_1126" data-name="Path 1126" d="M389.892,84.625c.4,0,.809.006,1.213.01q5.131.051,10.2.23V121q-5.073-.181-10.2-.232l-1.213-.01V84.625Z" transform="translate(-160.526 -66.149)" fill="#42e8e0" opacity="0.753"/>
      <path id="Path_1127" data-name="Path 1127" d="M377.293,91.825q5.611-.244,11.292-.33v25.119q-5.679.087-11.292.33V91.825Z" transform="translate(-168.199 -61.965)" fill="#42e8e0"/>
      <path id="Path_1128" data-name="Path 1128" d="M364.985,88.854q5.469-.514,11.022-.88v31.594q-5.551.362-11.022.879V88.854Z" transform="translate(-175.696 -64.109)" fill="#42e8e0" opacity="0.753"/>
      <path id="Path_1129" data-name="Path 1129" d="M353.009,82.029q5.312-.777,10.718-1.408v45.206q-5.4.63-10.718,1.408V82.029Z" transform="translate(-182.989 -68.587)" fill="#42e8e0"/>
    </g>
    <g id="Group_88" data-name="Group 88" transform="translate(224.961 105.728)">
      <g id="Group_34" data-name="Group 34" transform="translate(156.324 290.481)">
        <g id="Group_33" data-name="Group 33" transform="translate(0 0)">
          <g id="Group_32" data-name="Group 32">
            <g id="Group_25" data-name="Group 25" transform="translate(0 46.28)" opacity="0.11">
              <path id="Path_1130" data-name="Path 1130" d="M430.134,304.747a15.382,15.382,0,0,0-15.365-.008L323.2,357.488a2.161,2.161,0,0,0,0,3.744l92.337,53.311a13.562,13.562,0,0,0,13.559,0l92.478-53.259a2.163,2.163,0,0,0,0-3.746Z" transform="translate(-322.114 -302.687)" fill="url(#linear-gradient)"/>
            </g>
            <g id="Group_26" data-name="Group 26" transform="translate(0 30.853)" opacity="0.11">
              <path id="Path_1131" data-name="Path 1131" d="M430.134,295.16a15.378,15.378,0,0,0-15.365-.008L323.2,347.9a2.163,2.163,0,0,0,0,3.746l92.337,53.311a13.562,13.562,0,0,0,13.559,0L521.569,351.7a2.163,2.163,0,0,0,0-3.746Z" transform="translate(-322.114 -293.099)" fill="url(#linear-gradient)"/>
            </g>
            <g id="Group_27" data-name="Group 27" transform="translate(0 15.427)" opacity="0.11">
              <path id="Path_1132" data-name="Path 1132" d="M430.134,285.572a15.379,15.379,0,0,0-15.365-.006L323.2,338.313a2.161,2.161,0,0,0,0,3.744l92.337,53.311a13.562,13.562,0,0,0,13.559,0l92.478-53.259a2.163,2.163,0,0,0,0-3.746Z" transform="translate(-322.114 -283.512)" fill="url(#linear-gradient)"/>
            </g>
            <g id="Group_28" data-name="Group 28" opacity="0.11">
              <path id="Path_1133" data-name="Path 1133" d="M430.134,275.985a15.378,15.378,0,0,0-15.365-.008L323.2,328.724a2.163,2.163,0,0,0,0,3.746l92.337,53.311a13.562,13.562,0,0,0,13.559,0l92.478-53.261a2.161,2.161,0,0,0,0-3.744Z" transform="translate(-322.114 -273.924)" fill="url(#linear-gradient)"/>
            </g>
            <path id="Path_1134" data-name="Path 1134" d="M521.569,328.776l-91.435-52.791a15.378,15.378,0,0,0-15.365-.008L323.2,328.724a2.144,2.144,0,0,0-1.081,1.873v46.279a2.141,2.141,0,0,0,1.081,1.873l92.337,53.311a13.562,13.562,0,0,0,13.559,0L521.569,378.8a2.144,2.144,0,0,0,1.081-1.873V330.647h0A2.14,2.14,0,0,0,521.569,328.776Z" transform="translate(-322.114 -273.924)" opacity="0.5" fill="url(#linear-gradient)"/>
            <g id="Group_29" data-name="Group 29" opacity="0.11">
              <path id="Path_1135" data-name="Path 1135" d="M430.134,275.985a15.378,15.378,0,0,0-15.365-.008L323.2,328.724a2.163,2.163,0,0,0,0,3.746l92.337,53.311a13.562,13.562,0,0,0,13.559,0l92.478-53.261a2.161,2.161,0,0,0,0-3.744Z" transform="translate(-322.114 -273.924)" fill="url(#linear-gradient)"/>
            </g>
            <g id="Group_30" data-name="Group 30" transform="translate(36.374 20.619)" opacity="0.2">
              <path id="Path_1136" data-name="Path 1136" d="M413.553,288.052a9.8,9.8,0,0,0-9.789-.006l-58.355,33.613a1.379,1.379,0,0,0,0,2.388l58.841,33.972a8.639,8.639,0,0,0,8.639,0l58.931-33.94a1.379,1.379,0,0,0,0-2.388Z" transform="translate(-344.72 -286.739)" fill="#0068ff"/>
            </g>
            <g id="Group_31" data-name="Group 31" transform="translate(55.531 31.425)" opacity="0.5">
              <path id="Path_1137" data-name="Path 1137" d="M404.651,294.327a6.522,6.522,0,0,0-6.513,0l-41.029,23.634a.965.965,0,0,0,0,1.672l41.2,23.785a6.047,6.047,0,0,0,6.05,0l41.262-23.762a.966.966,0,0,0,0-1.672Z" transform="translate(-356.626 -293.454)" fill="#42e8e0"/>
            </g>
            <path id="Path_1138" data-name="Path 1138" d="M357.1,319.44l41.029-23.634a6.522,6.522,0,0,1,6.513,0l40.968,23.653c.04.024.056.066.093.095a.95.95,0,0,0-.093-1.577l-40.968-23.653a6.518,6.518,0,0,0-6.513,0L357.1,317.958a.949.949,0,0,0-.093,1.577C357.046,319.506,357.062,319.464,357.1,319.44Z" transform="translate(-301.09 -262.03)" fill="#42e8e0"/>
            <path id="Path_1139" data-name="Path 1139" d="M521.569,309.342,429.091,362.6a13.562,13.562,0,0,1-13.559,0l-92.337-53.311a2.142,2.142,0,0,1-.8-.808,2.163,2.163,0,0,0,.8,2.938l92.337,53.311a13.562,13.562,0,0,0,13.559,0l92.478-53.261a2.165,2.165,0,0,0,.8-2.938A2.147,2.147,0,0,1,521.569,309.342Z" transform="translate(-322.113 -252.876)" fill="url(#linear-gradient)"/>
          </g>
        </g>
      </g>
      <g id="Group_75" data-name="Group 75" transform="translate(0 198.088)" opacity="0.2">
        <g id="Group_44" data-name="Group 44" transform="translate(0 76.881)">
          <g id="Group_35" data-name="Group 35" transform="translate(118.419)">
            <path id="Path_1140" data-name="Path 1140" d="M305.928,272.8l-7.371-4.256,7.371-4.256,7.371,4.256Z" transform="translate(-298.556 -264.284)" fill="#42e8e0"/>
            <path id="Path_1141" data-name="Path 1141" d="M315.09,278.085l-7.371-4.256,7.371-4.256,7.371,4.256Z" transform="translate(-292.976 -261.062)" fill="#42e8e0" opacity="0.1"/>
            <path id="Path_1142" data-name="Path 1142" d="M324.252,283.375l-7.371-4.256,7.371-4.256,7.371,4.256Z" transform="translate(-287.396 -257.84)" fill="#42e8e0" opacity="0.4"/>
            <path id="Path_1143" data-name="Path 1143" d="M333.415,288.665l-7.371-4.256,7.371-4.256,7.371,4.256Z" transform="translate(-281.816 -254.618)" fill="#42e8e0"/>
            <path id="Path_1144" data-name="Path 1144" d="M342.577,293.955l-7.371-4.256,7.371-4.256,7.371,4.256Z" transform="translate(-276.235 -251.396)" fill="#42e8e0" opacity="0.4"/>
            <path id="Path_1145" data-name="Path 1145" d="M351.74,299.245l-7.371-4.256,7.371-4.256,7.371,4.256Z" transform="translate(-270.655 -248.175)" fill="#42e8e0"/>
            <path id="Path_1146" data-name="Path 1146" d="M360.9,304.534l-7.371-4.256,7.371-4.256,7.371,4.256Z" transform="translate(-265.075 -244.953)" fill="#42e8e0"/>
            <path id="Path_1147" data-name="Path 1147" d="M370.064,309.825l-7.371-4.256,7.371-4.256,7.371,4.256Z" transform="translate(-259.494 -241.731)" fill="#42e8e0"/>
            <path id="Path_1148" data-name="Path 1148" d="M379.227,315.114l-7.371-4.256,7.371-4.256,7.371,4.256Z" transform="translate(-253.914 -238.509)" fill="#42e8e0" opacity="0.1"/>
          </g>
          <g id="Group_36" data-name="Group 36" transform="translate(103.616 8.546)">
            <path id="Path_1149" data-name="Path 1149" d="M296.728,278.106l-7.371-4.256,7.371-4.256,7.371,4.256Z" transform="translate(-289.357 -269.595)" fill="#42e8e0"/>
            <path id="Path_1150" data-name="Path 1150" d="M305.891,283.4l-7.371-4.256,7.371-4.256,7.371,4.256Z" transform="translate(-283.777 -266.373)" fill="#42e8e0"/>
            <path id="Path_1151" data-name="Path 1151" d="M315.053,288.686l-7.371-4.256,7.371-4.256,7.371,4.256Z" transform="translate(-278.196 -263.151)" fill="#42e8e0"/>
            <path id="Path_1152" data-name="Path 1152" d="M324.215,293.976l-7.371-4.256,7.371-4.256,7.371,4.256Z" transform="translate(-272.616 -259.93)" fill="#42e8e0"/>
            <path id="Path_1153" data-name="Path 1153" d="M333.378,299.266l-7.371-4.256,7.371-4.256,7.371,4.256Z" transform="translate(-267.036 -256.708)" fill="#42e8e0"/>
            <path id="Path_1154" data-name="Path 1154" d="M342.54,304.556l-7.371-4.256,7.371-4.256,7.371,4.256Z" transform="translate(-261.456 -253.486)" fill="#42e8e0"/>
            <path id="Path_1155" data-name="Path 1155" d="M351.7,309.846l-7.371-4.256,7.371-4.256,7.371,4.256Z" transform="translate(-255.875 -250.264)" fill="#42e8e0"/>
            <path id="Path_1156" data-name="Path 1156" d="M360.865,315.136l-7.371-4.256,7.371-4.256,7.371,4.256Z" transform="translate(-250.295 -247.042)" fill="#42e8e0"/>
            <path id="Path_1157" data-name="Path 1157" d="M370.027,320.426l-7.371-4.256,7.371-4.256,7.371,4.256Z" transform="translate(-244.715 -243.821)" fill="#42e8e0"/>
          </g>
          <g id="Group_37" data-name="Group 37" transform="translate(88.814 17.092)">
            <path id="Path_1158" data-name="Path 1158" d="M287.529,283.418l-7.371-4.256,7.371-4.256,7.371,4.256Z" transform="translate(-280.157 -274.906)" fill="#42e8e0"/>
            <path id="Path_1159" data-name="Path 1159" d="M296.691,288.708l-7.371-4.256,7.371-4.256,7.371,4.256Z" transform="translate(-274.577 -271.684)" fill="#42e8e0"/>
            <path id="Path_1160" data-name="Path 1160" d="M305.854,294l-7.371-4.256,7.371-4.256,7.371,4.256Z" transform="translate(-268.997 -268.463)" fill="#42e8e0"/>
            <path id="Path_1161" data-name="Path 1161" d="M315.016,299.288l-7.371-4.256,7.371-4.256,7.371,4.256Z" transform="translate(-263.417 -265.241)" fill="#42e8e0" opacity="0.1"/>
            <path id="Path_1162" data-name="Path 1162" d="M324.178,304.577l-7.371-4.256,7.371-4.256,7.371,4.256Z" transform="translate(-257.836 -262.019)" fill="#42e8e0" opacity="0.4"/>
            <path id="Path_1163" data-name="Path 1163" d="M333.341,309.867l-7.371-4.256,7.371-4.256,7.371,4.256Z" transform="translate(-252.256 -258.797)" fill="#42e8e0" opacity="0.4"/>
            <path id="Path_1164" data-name="Path 1164" d="M342.5,315.157l-7.371-4.256,7.371-4.256,7.371,4.256Z" transform="translate(-246.676 -255.575)" fill="#42e8e0"/>
            <path id="Path_1165" data-name="Path 1165" d="M351.665,320.447l-7.371-4.256,7.371-4.256,7.371,4.256Z" transform="translate(-241.095 -252.354)" fill="#42e8e0"/>
            <path id="Path_1166" data-name="Path 1166" d="M360.828,325.737l-7.371-4.256,7.371-4.256,7.371,4.256Z" transform="translate(-235.515 -249.132)" fill="#42e8e0"/>
          </g>
          <g id="Group_38" data-name="Group 38" transform="translate(74.012 25.638)">
            <path id="Path_1167" data-name="Path 1167" d="M278.329,288.729l-7.371-4.256,7.371-4.256,7.371,4.256Z" transform="translate(-270.958 -280.217)" fill="#42e8e0" opacity="0.4"/>
            <path id="Path_1168" data-name="Path 1168" d="M287.492,294.019l-7.371-4.256,7.371-4.256,7.371,4.256Z" transform="translate(-265.378 -276.996)" fill="#42e8e0" opacity="0.4"/>
            <path id="Path_1169" data-name="Path 1169" d="M296.654,299.309l-7.371-4.256,7.371-4.256,7.371,4.256Z" transform="translate(-259.797 -273.774)" fill="#42e8e0" opacity="0.1"/>
            <path id="Path_1170" data-name="Path 1170" d="M305.816,304.6l-7.371-4.256,7.371-4.256,7.371,4.256Z" transform="translate(-254.217 -270.552)" fill="#42e8e0"/>
            <path id="Path_1171" data-name="Path 1171" d="M314.979,309.889l-7.371-4.256,7.371-4.256,7.371,4.256Z" transform="translate(-248.637 -267.33)" fill="#42e8e0"/>
            <path id="Path_1172" data-name="Path 1172" d="M324.141,315.179l-7.371-4.256,7.371-4.256,7.371,4.256Z" transform="translate(-243.057 -264.108)" fill="#42e8e0"/>
            <path id="Path_1173" data-name="Path 1173" d="M333.3,320.468l-7.371-4.256,7.371-4.256,7.371,4.256Z" transform="translate(-237.476 -260.887)" fill="#42e8e0" opacity="0.4"/>
            <path id="Path_1174" data-name="Path 1174" d="M342.466,325.758l-7.371-4.256,7.371-4.256,7.371,4.256Z" transform="translate(-231.896 -257.665)" fill="#42e8e0"/>
            <path id="Path_1175" data-name="Path 1175" d="M351.628,331.048l-7.371-4.256,7.371-4.256L359,326.793Z" transform="translate(-226.316 -254.443)" fill="#42e8e0"/>
          </g>
          <g id="Group_39" data-name="Group 39" transform="translate(59.209 34.185)">
            <path id="Path_1176" data-name="Path 1176" d="M269.13,294.04l-7.371-4.256,7.371-4.256,7.371,4.256Z" transform="translate(-261.759 -285.529)" fill="#42e8e0"/>
            <path id="Path_1177" data-name="Path 1177" d="M278.292,299.33l-7.371-4.256,7.371-4.256,7.371,4.256Z" transform="translate(-256.178 -282.307)" fill="#42e8e0"/>
            <path id="Path_1178" data-name="Path 1178" d="M287.454,304.62l-7.371-4.256,7.371-4.256,7.371,4.256Z" transform="translate(-250.598 -279.085)" fill="#42e8e0"/>
            <path id="Path_1179" data-name="Path 1179" d="M296.617,309.91l-7.371-4.256,7.371-4.256,7.371,4.256Z" transform="translate(-245.018 -275.864)" fill="#42e8e0"/>
            <path id="Path_1180" data-name="Path 1180" d="M305.779,315.2l-7.371-4.256,7.371-4.256,7.371,4.256Z" transform="translate(-239.437 -272.642)" fill="#42e8e0"/>
            <path id="Path_1181" data-name="Path 1181" d="M314.942,320.49l-7.371-4.256,7.371-4.256,7.371,4.256Z" transform="translate(-233.857 -269.42)" fill="#42e8e0"/>
            <path id="Path_1182" data-name="Path 1182" d="M324.1,325.78l-7.371-4.256,7.371-4.256,7.371,4.256Z" transform="translate(-228.277 -266.198)" fill="#42e8e0"/>
            <path id="Path_1183" data-name="Path 1183" d="M333.267,331.07l-7.371-4.256,7.371-4.256,7.371,4.256Z" transform="translate(-222.697 -262.976)" fill="#42e8e0"/>
            <path id="Path_1184" data-name="Path 1184" d="M342.429,336.36l-7.371-4.256,7.371-4.256L349.8,332.1Z" transform="translate(-217.116 -259.755)" fill="#42e8e0"/>
          </g>
          <g id="Group_40" data-name="Group 40" transform="translate(44.407 42.731)">
            <path id="Path_1185" data-name="Path 1185" d="M259.93,299.352l-7.371-4.256,7.371-4.256L267.3,295.1Z" transform="translate(-252.559 -290.84)" fill="#42e8e0"/>
            <path id="Path_1186" data-name="Path 1186" d="M269.093,304.642l-7.371-4.256,7.371-4.256,7.371,4.256Z" transform="translate(-246.979 -287.618)" fill="#42e8e0"/>
            <path id="Path_1187" data-name="Path 1187" d="M278.255,309.931l-7.371-4.256,7.371-4.256,7.371,4.256Z" transform="translate(-241.398 -284.397)" fill="#42e8e0" opacity="0.4"/>
            <path id="Path_1188" data-name="Path 1188" d="M287.418,315.221l-7.371-4.256,7.371-4.256,7.371,4.256Z" transform="translate(-235.818 -281.175)" fill="#42e8e0"/>
            <path id="Path_1189" data-name="Path 1189" d="M296.58,320.511l-7.371-4.256L296.58,312l7.371,4.256Z" transform="translate(-230.238 -277.953)" fill="#42e8e0" opacity="0.1"/>
            <path id="Path_1190" data-name="Path 1190" d="M305.742,325.8l-7.371-4.256,7.371-4.256,7.371,4.256Z" transform="translate(-224.658 -274.731)" fill="#42e8e0"/>
            <path id="Path_1191" data-name="Path 1191" d="M314.9,331.091l-7.371-4.256,7.371-4.256,7.371,4.256Z" transform="translate(-219.077 -271.51)" fill="#42e8e0"/>
            <path id="Path_1192" data-name="Path 1192" d="M324.067,336.381l-7.371-4.256,7.371-4.256,7.371,4.256Z" transform="translate(-213.497 -268.288)" fill="#42e8e0"/>
            <path id="Path_1193" data-name="Path 1193" d="M333.229,341.671l-7.371-4.256,7.371-4.256,7.371,4.256Z" transform="translate(-207.917 -265.066)" fill="#42e8e0"/>
          </g>
          <g id="Group_41" data-name="Group 41" transform="translate(29.605 51.277)">
            <path id="Path_1194" data-name="Path 1194" d="M250.731,304.663l-7.371-4.256,7.371-4.256,7.371,4.256Z" transform="translate(-243.359 -296.151)" fill="#42e8e0"/>
            <path id="Path_1195" data-name="Path 1195" d="M259.893,309.953l-7.371-4.256,7.371-4.256,7.371,4.256Z" transform="translate(-237.779 -292.93)" fill="#42e8e0"/>
            <path id="Path_1196" data-name="Path 1196" d="M269.056,315.243l-7.371-4.256,7.371-4.256,7.371,4.256Z" transform="translate(-232.199 -289.708)" fill="#42e8e0" opacity="0.4"/>
            <path id="Path_1197" data-name="Path 1197" d="M278.218,320.533l-7.371-4.256,7.371-4.256,7.371,4.256Z" transform="translate(-226.619 -286.486)" fill="#42e8e0"/>
            <path id="Path_1198" data-name="Path 1198" d="M287.38,325.823l-7.371-4.256,7.371-4.256,7.371,4.256Z" transform="translate(-221.038 -283.264)" fill="#42e8e0"/>
            <path id="Path_1199" data-name="Path 1199" d="M296.543,331.113l-7.371-4.256,7.371-4.256,7.371,4.256Z" transform="translate(-215.458 -280.043)" fill="#42e8e0" opacity="0.1"/>
            <path id="Path_1200" data-name="Path 1200" d="M305.705,336.4l-7.371-4.256,7.371-4.256,7.371,4.256Z" transform="translate(-209.878 -276.821)" fill="#42e8e0" opacity="0.4"/>
            <path id="Path_1201" data-name="Path 1201" d="M314.868,341.692l-7.371-4.256,7.371-4.256,7.371,4.256Z" transform="translate(-204.297 -273.599)" fill="#42e8e0"/>
            <path id="Path_1202" data-name="Path 1202" d="M324.03,346.982l-7.371-4.256,7.371-4.256,7.371,4.256Z" transform="translate(-198.717 -270.377)" fill="#42e8e0" opacity="0.1"/>
          </g>
          <g id="Group_42" data-name="Group 42" transform="translate(14.802 59.823)">
            <path id="Path_1203" data-name="Path 1203" d="M241.531,309.974l-7.371-4.256,7.371-4.256,7.371,4.256Z" transform="translate(-234.16 -301.463)" fill="#42e8e0"/>
            <path id="Path_1204" data-name="Path 1204" d="M250.694,315.264l-7.371-4.256,7.371-4.256,7.371,4.256Z" transform="translate(-228.58 -298.241)" fill="#42e8e0" opacity="0.4"/>
            <path id="Path_1205" data-name="Path 1205" d="M259.856,320.554l-7.371-4.256,7.371-4.256,7.371,4.256Z" transform="translate(-223 -295.019)" fill="#42e8e0"/>
            <path id="Path_1206" data-name="Path 1206" d="M269.019,325.844l-7.371-4.256,7.371-4.256,7.371,4.256Z" transform="translate(-217.419 -291.797)" fill="#42e8e0"/>
            <path id="Path_1207" data-name="Path 1207" d="M278.181,331.134l-7.371-4.256,7.371-4.256,7.371,4.256Z" transform="translate(-211.839 -288.576)" fill="#42e8e0"/>
            <path id="Path_1208" data-name="Path 1208" d="M287.343,336.424l-7.371-4.256,7.371-4.256,7.371,4.256Z" transform="translate(-206.259 -285.354)" fill="#42e8e0"/>
            <path id="Path_1209" data-name="Path 1209" d="M296.506,341.714l-7.371-4.256,7.371-4.256,7.371,4.256Z" transform="translate(-200.678 -282.132)" fill="#42e8e0"/>
            <path id="Path_1210" data-name="Path 1210" d="M305.668,347l-7.371-4.256,7.371-4.256,7.371,4.256Z" transform="translate(-195.098 -278.91)" fill="#42e8e0" opacity="0.4"/>
            <path id="Path_1211" data-name="Path 1211" d="M314.83,352.294l-7.371-4.256,7.371-4.256,7.371,4.256Z" transform="translate(-189.518 -275.689)" fill="#42e8e0"/>
          </g>
          <g id="Group_43" data-name="Group 43" transform="translate(0 68.369)">
            <path id="Path_1212" data-name="Path 1212" d="M232.332,315.286l-7.371-4.256,7.371-4.256,7.371,4.256Z" transform="translate(-224.961 -306.774)" fill="#42e8e0"/>
            <path id="Path_1213" data-name="Path 1213" d="M241.494,320.576l-7.371-4.256,7.371-4.256,7.371,4.256Z" transform="translate(-219.38 -303.552)" fill="#42e8e0" opacity="0.1"/>
            <path id="Path_1214" data-name="Path 1214" d="M250.657,325.865l-7.371-4.256,7.371-4.256,7.371,4.256Z" transform="translate(-213.8 -300.33)" fill="#42e8e0"/>
            <path id="Path_1215" data-name="Path 1215" d="M259.819,331.155l-7.371-4.256,7.371-4.256,7.371,4.256Z" transform="translate(-208.22 -297.109)" fill="#42e8e0"/>
            <path id="Path_1216" data-name="Path 1216" d="M268.981,336.445l-7.371-4.256,7.371-4.256,7.371,4.256Z" transform="translate(-202.639 -293.887)" fill="#42e8e0"/>
            <path id="Path_1217" data-name="Path 1217" d="M278.144,341.735l-7.371-4.256,7.371-4.256,7.371,4.256Z" transform="translate(-197.059 -290.665)" fill="#42e8e0"/>
            <path id="Path_1218" data-name="Path 1218" d="M287.306,347.025l-7.371-4.256,7.371-4.256,7.371,4.256Z" transform="translate(-191.479 -287.443)" fill="#42e8e0" opacity="0.4"/>
            <path id="Path_1219" data-name="Path 1219" d="M296.469,352.315l-7.371-4.256,7.371-4.256,7.371,4.256Z" transform="translate(-185.899 -284.222)" fill="#42e8e0"/>
            <path id="Path_1220" data-name="Path 1220" d="M305.631,357.6l-7.371-4.256,7.371-4.256L313,353.349Z" transform="translate(-180.318 -281)" fill="#42e8e0"/>
          </g>
        </g>
        <g id="Group_54" data-name="Group 54" transform="translate(262.083 76.881)">
          <g id="Group_45" data-name="Group 45" transform="translate(118.419)">
            <path id="Path_1221" data-name="Path 1221" d="M468.809,272.8l-7.371-4.256,7.371-4.256,7.371,4.256Z" transform="translate(-461.437 -264.284)" fill="#42e8e0"/>
            <path id="Path_1222" data-name="Path 1222" d="M477.971,278.085l-7.371-4.256,7.371-4.256,7.371,4.256Z" transform="translate(-455.857 -261.062)" fill="#42e8e0" opacity="0.1"/>
            <path id="Path_1223" data-name="Path 1223" d="M487.134,283.375l-7.371-4.256,7.371-4.256,7.371,4.256Z" transform="translate(-450.277 -257.84)" fill="#42e8e0" opacity="0.4"/>
            <path id="Path_1224" data-name="Path 1224" d="M496.3,288.665l-7.371-4.256,7.371-4.256,7.371,4.256Z" transform="translate(-444.697 -254.618)" fill="#42e8e0"/>
            <path id="Path_1225" data-name="Path 1225" d="M505.458,293.955l-7.371-4.256,7.371-4.256,7.371,4.256Z" transform="translate(-439.116 -251.396)" fill="#42e8e0" opacity="0.4"/>
            <path id="Path_1226" data-name="Path 1226" d="M514.621,299.245l-7.371-4.256,7.371-4.256,7.371,4.256Z" transform="translate(-433.536 -248.175)" fill="#42e8e0"/>
            <path id="Path_1227" data-name="Path 1227" d="M523.783,304.534l-7.371-4.256,7.371-4.256,7.371,4.256Z" transform="translate(-427.956 -244.953)" fill="#42e8e0"/>
            <path id="Path_1228" data-name="Path 1228" d="M532.945,309.825l-7.371-4.256,7.371-4.256,7.371,4.256Z" transform="translate(-422.375 -241.731)" fill="#42e8e0"/>
            <path id="Path_1229" data-name="Path 1229" d="M542.108,315.114l-7.371-4.256,7.371-4.256,7.371,4.256Z" transform="translate(-416.795 -238.509)" fill="#42e8e0" opacity="0.1"/>
          </g>
          <g id="Group_46" data-name="Group 46" transform="translate(103.616 8.546)">
            <path id="Path_1230" data-name="Path 1230" d="M459.609,278.106l-7.371-4.256,7.371-4.256,7.371,4.256Z" transform="translate(-452.238 -269.595)" fill="#42e8e0"/>
            <path id="Path_1231" data-name="Path 1231" d="M468.772,283.4l-7.371-4.256,7.371-4.256,7.371,4.256Z" transform="translate(-446.658 -266.373)" fill="#42e8e0"/>
            <path id="Path_1232" data-name="Path 1232" d="M477.934,288.686l-7.371-4.256,7.371-4.256,7.371,4.256Z" transform="translate(-441.077 -263.151)" fill="#42e8e0"/>
            <path id="Path_1233" data-name="Path 1233" d="M487.1,293.976l-7.371-4.256,7.371-4.256,7.371,4.256Z" transform="translate(-435.497 -259.93)" fill="#42e8e0"/>
            <path id="Path_1234" data-name="Path 1234" d="M496.259,299.266l-7.371-4.256,7.371-4.256,7.371,4.256Z" transform="translate(-429.917 -256.708)" fill="#42e8e0"/>
            <path id="Path_1235" data-name="Path 1235" d="M505.421,304.556,498.05,300.3l7.371-4.256,7.371,4.256Z" transform="translate(-424.336 -253.486)" fill="#42e8e0"/>
            <path id="Path_1236" data-name="Path 1236" d="M514.583,309.846l-7.371-4.256,7.371-4.256,7.371,4.256Z" transform="translate(-418.756 -250.264)" fill="#42e8e0"/>
            <path id="Path_1237" data-name="Path 1237" d="M523.746,315.136l-7.371-4.256,7.371-4.256,7.371,4.256Z" transform="translate(-413.176 -247.042)" fill="#42e8e0"/>
            <path id="Path_1238" data-name="Path 1238" d="M532.908,320.426l-7.372-4.256,7.371-4.256,7.371,4.256Z" transform="translate(-407.596 -243.821)" fill="#42e8e0"/>
          </g>
          <g id="Group_47" data-name="Group 47" transform="translate(88.814 17.092)">
            <path id="Path_1239" data-name="Path 1239" d="M450.41,283.418l-7.371-4.256,7.371-4.256,7.371,4.256Z" transform="translate(-443.038 -274.906)" fill="#42e8e0"/>
            <path id="Path_1240" data-name="Path 1240" d="M459.572,288.708l-7.371-4.256,7.371-4.256,7.371,4.256Z" transform="translate(-437.458 -271.684)" fill="#42e8e0"/>
            <path id="Path_1241" data-name="Path 1241" d="M468.734,294l-7.371-4.256,7.371-4.256,7.371,4.256Z" transform="translate(-431.878 -268.463)" fill="#42e8e0"/>
            <path id="Path_1242" data-name="Path 1242" d="M477.9,299.288l-7.371-4.256,7.371-4.256,7.371,4.256Z" transform="translate(-426.298 -265.241)" fill="#42e8e0" opacity="0.1"/>
            <path id="Path_1243" data-name="Path 1243" d="M487.059,304.577l-7.371-4.256,7.371-4.256,7.371,4.256Z" transform="translate(-420.717 -262.019)" fill="#42e8e0" opacity="0.4"/>
            <path id="Path_1244" data-name="Path 1244" d="M496.222,309.867l-7.371-4.256,7.371-4.256,7.371,4.256Z" transform="translate(-415.137 -258.797)" fill="#42e8e0" opacity="0.4"/>
            <path id="Path_1245" data-name="Path 1245" d="M505.384,315.157l-7.371-4.256,7.371-4.256,7.371,4.256Z" transform="translate(-409.557 -255.575)" fill="#42e8e0"/>
            <path id="Path_1246" data-name="Path 1246" d="M514.547,320.447l-7.371-4.256,7.371-4.256,7.371,4.256Z" transform="translate(-403.976 -252.354)" fill="#42e8e0"/>
            <path id="Path_1247" data-name="Path 1247" d="M523.709,325.737l-7.371-4.256,7.371-4.256,7.371,4.256Z" transform="translate(-398.396 -249.132)" fill="#42e8e0"/>
          </g>
          <g id="Group_48" data-name="Group 48" transform="translate(74.012 25.638)">
            <path id="Path_1248" data-name="Path 1248" d="M441.21,288.729l-7.371-4.256,7.371-4.256,7.371,4.256Z" transform="translate(-433.839 -280.217)" fill="#42e8e0" opacity="0.4"/>
            <path id="Path_1249" data-name="Path 1249" d="M450.373,294.019,443,289.763l7.371-4.256,7.371,4.256Z" transform="translate(-428.259 -276.996)" fill="#42e8e0" opacity="0.4"/>
            <path id="Path_1250" data-name="Path 1250" d="M459.535,299.309l-7.371-4.256,7.371-4.256,7.371,4.256Z" transform="translate(-422.678 -273.774)" fill="#42e8e0" opacity="0.1"/>
            <path id="Path_1251" data-name="Path 1251" d="M468.7,304.6l-7.371-4.256,7.371-4.256,7.371,4.256Z" transform="translate(-417.098 -270.552)" fill="#42e8e0"/>
            <path id="Path_1252" data-name="Path 1252" d="M477.86,309.889l-7.371-4.256,7.371-4.256,7.371,4.256Z" transform="translate(-411.518 -267.33)" fill="#42e8e0"/>
            <path id="Path_1253" data-name="Path 1253" d="M487.022,315.179l-7.371-4.256,7.371-4.256,7.371,4.256Z" transform="translate(-405.938 -264.108)" fill="#42e8e0"/>
            <path id="Path_1254" data-name="Path 1254" d="M496.185,320.468l-7.371-4.256,7.371-4.256,7.371,4.256Z" transform="translate(-400.357 -260.887)" fill="#42e8e0" opacity="0.4"/>
            <path id="Path_1255" data-name="Path 1255" d="M505.347,325.758l-7.371-4.256,7.371-4.256,7.371,4.256Z" transform="translate(-394.777 -257.665)" fill="#42e8e0"/>
            <path id="Path_1256" data-name="Path 1256" d="M514.509,331.048l-7.371-4.256,7.371-4.256,7.371,4.256Z" transform="translate(-389.197 -254.443)" fill="#42e8e0"/>
          </g>
          <g id="Group_49" data-name="Group 49" transform="translate(59.209 34.185)">
            <path id="Path_1257" data-name="Path 1257" d="M432.011,294.04l-7.371-4.256,7.371-4.256,7.371,4.256Z" transform="translate(-424.639 -285.529)" fill="#42e8e0"/>
            <path id="Path_1258" data-name="Path 1258" d="M441.173,299.33l-7.371-4.256,7.371-4.256,7.371,4.256Z" transform="translate(-419.059 -282.307)" fill="#42e8e0"/>
            <path id="Path_1259" data-name="Path 1259" d="M450.336,304.62l-7.371-4.256,7.371-4.256,7.371,4.256Z" transform="translate(-413.479 -279.085)" fill="#42e8e0"/>
            <path id="Path_1260" data-name="Path 1260" d="M459.5,309.91l-7.371-4.256L459.5,301.4l7.371,4.256Z" transform="translate(-407.899 -275.864)" fill="#42e8e0"/>
            <path id="Path_1261" data-name="Path 1261" d="M468.66,315.2l-7.371-4.256,7.371-4.256,7.371,4.256Z" transform="translate(-402.318 -272.642)" fill="#42e8e0"/>
            <path id="Path_1262" data-name="Path 1262" d="M477.823,320.49l-7.371-4.256,7.371-4.256,7.371,4.256Z" transform="translate(-396.738 -269.42)" fill="#42e8e0"/>
            <path id="Path_1263" data-name="Path 1263" d="M486.985,325.78l-7.371-4.256,7.371-4.256,7.371,4.256Z" transform="translate(-391.158 -266.198)" fill="#42e8e0"/>
            <path id="Path_1264" data-name="Path 1264" d="M496.147,331.07l-7.371-4.256,7.371-4.256,7.371,4.256Z" transform="translate(-385.577 -262.976)" fill="#42e8e0"/>
            <path id="Path_1265" data-name="Path 1265" d="M505.31,336.36l-7.371-4.256,7.371-4.256,7.371,4.256Z" transform="translate(-379.997 -259.755)" fill="#42e8e0"/>
          </g>
          <g id="Group_50" data-name="Group 50" transform="translate(44.407 42.731)">
            <path id="Path_1266" data-name="Path 1266" d="M422.811,299.352,415.44,295.1l7.371-4.256,7.371,4.256Z" transform="translate(-415.44 -290.84)" fill="#42e8e0"/>
            <path id="Path_1267" data-name="Path 1267" d="M431.974,304.642l-7.371-4.256,7.371-4.256,7.371,4.256Z" transform="translate(-409.86 -287.618)" fill="#42e8e0"/>
            <path id="Path_1268" data-name="Path 1268" d="M441.136,309.931l-7.371-4.256,7.371-4.256,7.371,4.256Z" transform="translate(-404.279 -284.397)" fill="#42e8e0" opacity="0.4"/>
            <path id="Path_1269" data-name="Path 1269" d="M450.3,315.221l-7.371-4.256,7.371-4.256,7.371,4.256Z" transform="translate(-398.699 -281.175)" fill="#42e8e0"/>
            <path id="Path_1270" data-name="Path 1270" d="M459.461,320.511l-7.371-4.256L459.461,312l7.371,4.256Z" transform="translate(-393.119 -277.953)" fill="#42e8e0" opacity="0.1"/>
            <path id="Path_1271" data-name="Path 1271" d="M468.623,325.8l-7.371-4.256,7.371-4.256,7.371,4.256Z" transform="translate(-387.538 -274.731)" fill="#42e8e0"/>
            <path id="Path_1272" data-name="Path 1272" d="M477.786,331.091l-7.371-4.256,7.371-4.256,7.371,4.256Z" transform="translate(-381.958 -271.51)" fill="#42e8e0"/>
            <path id="Path_1273" data-name="Path 1273" d="M486.948,336.381l-7.371-4.256,7.371-4.256,7.371,4.256Z" transform="translate(-376.378 -268.288)" fill="#42e8e0"/>
            <path id="Path_1274" data-name="Path 1274" d="M496.11,341.671l-7.371-4.256,7.371-4.256,7.371,4.256Z" transform="translate(-370.798 -265.066)" fill="#42e8e0"/>
          </g>
          <g id="Group_51" data-name="Group 51" transform="translate(29.605 51.277)">
            <path id="Path_1275" data-name="Path 1275" d="M413.612,304.663l-7.371-4.256,7.371-4.256,7.371,4.256Z" transform="translate(-406.241 -296.151)" fill="#42e8e0"/>
            <path id="Path_1276" data-name="Path 1276" d="M422.774,309.953,415.4,305.7l7.371-4.256,7.371,4.256Z" transform="translate(-400.66 -292.93)" fill="#42e8e0"/>
            <path id="Path_1277" data-name="Path 1277" d="M431.937,315.243l-7.371-4.256,7.371-4.256,7.371,4.256Z" transform="translate(-395.08 -289.708)" fill="#42e8e0" opacity="0.4"/>
            <path id="Path_1278" data-name="Path 1278" d="M441.1,320.533l-7.371-4.256,7.371-4.256,7.371,4.256Z" transform="translate(-389.5 -286.486)" fill="#42e8e0"/>
            <path id="Path_1279" data-name="Path 1279" d="M450.261,325.823l-7.371-4.256,7.371-4.256,7.371,4.256Z" transform="translate(-383.919 -283.264)" fill="#42e8e0"/>
            <path id="Path_1280" data-name="Path 1280" d="M459.424,331.113l-7.371-4.256,7.371-4.256,7.371,4.256Z" transform="translate(-378.339 -280.043)" fill="#42e8e0" opacity="0.1"/>
            <path id="Path_1281" data-name="Path 1281" d="M468.586,336.4l-7.371-4.256,7.371-4.256,7.371,4.256Z" transform="translate(-372.759 -276.821)" fill="#42e8e0" opacity="0.4"/>
            <path id="Path_1282" data-name="Path 1282" d="M477.749,341.692l-7.371-4.256,7.371-4.256,7.371,4.256Z" transform="translate(-367.179 -273.599)" fill="#42e8e0"/>
            <path id="Path_1283" data-name="Path 1283" d="M486.911,346.982l-7.371-4.256,7.371-4.256,7.371,4.256Z" transform="translate(-361.598 -270.377)" fill="#42e8e0" opacity="0.1"/>
          </g>
          <g id="Group_52" data-name="Group 52" transform="translate(14.802 59.823)">
            <path id="Path_1284" data-name="Path 1284" d="M404.412,309.974l-7.371-4.256,7.371-4.256,7.371,4.256Z" transform="translate(-397.041 -301.463)" fill="#42e8e0"/>
            <path id="Path_1285" data-name="Path 1285" d="M413.575,315.264l-7.371-4.256,7.371-4.256,7.371,4.256Z" transform="translate(-391.461 -298.241)" fill="#42e8e0" opacity="0.4"/>
            <path id="Path_1286" data-name="Path 1286" d="M422.737,320.554l-7.371-4.256,7.371-4.256,7.371,4.256Z" transform="translate(-385.88 -295.019)" fill="#42e8e0"/>
            <path id="Path_1287" data-name="Path 1287" d="M431.9,325.844l-7.371-4.256,7.371-4.256,7.371,4.256Z" transform="translate(-380.3 -291.797)" fill="#42e8e0"/>
            <path id="Path_1288" data-name="Path 1288" d="M441.062,331.134l-7.371-4.256,7.371-4.256,7.371,4.256Z" transform="translate(-374.72 -288.576)" fill="#42e8e0"/>
            <path id="Path_1289" data-name="Path 1289" d="M450.224,336.424l-7.371-4.256,7.371-4.256,7.371,4.256Z" transform="translate(-369.14 -285.354)" fill="#42e8e0"/>
            <path id="Path_1290" data-name="Path 1290" d="M459.387,341.714l-7.371-4.256,7.371-4.256,7.371,4.256Z" transform="translate(-363.559 -282.132)" fill="#42e8e0"/>
            <path id="Path_1291" data-name="Path 1291" d="M468.549,347l-7.371-4.256,7.371-4.256,7.371,4.256Z" transform="translate(-357.979 -278.91)" fill="#42e8e0" opacity="0.4"/>
            <path id="Path_1292" data-name="Path 1292" d="M477.712,352.294l-7.371-4.256,7.371-4.256,7.371,4.256Z" transform="translate(-352.399 -275.689)" fill="#42e8e0"/>
          </g>
          <g id="Group_53" data-name="Group 53" transform="translate(0 68.369)">
            <path id="Path_1293" data-name="Path 1293" d="M395.213,315.286l-7.371-4.256,7.371-4.256,7.371,4.256Z" transform="translate(-387.842 -306.774)" fill="#42e8e0"/>
            <path id="Path_1294" data-name="Path 1294" d="M404.375,320.576,397,316.32l7.371-4.256,7.371,4.256Z" transform="translate(-382.261 -303.552)" fill="#42e8e0" opacity="0.1"/>
            <path id="Path_1295" data-name="Path 1295" d="M413.538,325.865l-7.371-4.256,7.371-4.256,7.371,4.256Z" transform="translate(-376.681 -300.33)" fill="#42e8e0"/>
            <path id="Path_1296" data-name="Path 1296" d="M422.7,331.155l-7.371-4.256,7.371-4.256,7.371,4.256Z" transform="translate(-371.101 -297.109)" fill="#42e8e0"/>
            <path id="Path_1297" data-name="Path 1297" d="M431.862,336.445l-7.371-4.256,7.371-4.256,7.371,4.256Z" transform="translate(-365.52 -293.887)" fill="#42e8e0"/>
            <path id="Path_1298" data-name="Path 1298" d="M441.025,341.735l-7.371-4.256,7.371-4.256,7.371,4.256Z" transform="translate(-359.94 -290.665)" fill="#42e8e0"/>
            <path id="Path_1299" data-name="Path 1299" d="M450.187,347.025l-7.371-4.256,7.371-4.256,7.371,4.256Z" transform="translate(-354.36 -287.443)" fill="#42e8e0" opacity="0.4"/>
            <path id="Path_1300" data-name="Path 1300" d="M459.35,352.315l-7.371-4.256,7.371-4.256,7.371,4.256Z" transform="translate(-348.78 -284.222)" fill="#42e8e0"/>
            <path id="Path_1301" data-name="Path 1301" d="M468.512,357.6l-7.371-4.256,7.371-4.256,7.371,4.256Z" transform="translate(-343.199 -281)" fill="#42e8e0"/>
          </g>
        </g>
        <g id="Group_64" data-name="Group 64" transform="translate(131.363)">
          <g id="Group_55" data-name="Group 55" transform="translate(118.419)">
            <path id="Path_1302" data-name="Path 1302" d="M387.568,225.015l-7.371-4.256,7.371-4.256,7.371,4.256Z" transform="translate(-380.197 -216.503)" fill="#42e8e0"/>
            <path id="Path_1303" data-name="Path 1303" d="M396.731,230.3l-7.371-4.256,7.371-4.256,7.371,4.256Z" transform="translate(-374.617 -213.281)" fill="#42e8e0" opacity="0.1"/>
            <path id="Path_1304" data-name="Path 1304" d="M405.893,235.595l-7.371-4.256,7.371-4.256,7.371,4.256Z" transform="translate(-369.036 -210.06)" fill="#42e8e0" opacity="0.4"/>
            <path id="Path_1305" data-name="Path 1305" d="M415.055,240.884l-7.371-4.256,7.371-4.256,7.371,4.256Z" transform="translate(-363.456 -206.838)" fill="#42e8e0"/>
            <path id="Path_1306" data-name="Path 1306" d="M424.218,246.174l-7.371-4.256,7.371-4.256,7.371,4.256Z" transform="translate(-357.876 -203.616)" fill="#42e8e0" opacity="0.4"/>
            <path id="Path_1307" data-name="Path 1307" d="M433.38,251.464l-7.371-4.256,7.371-4.256,7.371,4.256Z" transform="translate(-352.295 -200.394)" fill="#42e8e0"/>
            <path id="Path_1308" data-name="Path 1308" d="M442.543,256.754l-7.371-4.256,7.371-4.256,7.371,4.256Z" transform="translate(-346.715 -197.172)" fill="#42e8e0"/>
            <path id="Path_1309" data-name="Path 1309" d="M451.7,262.044l-7.371-4.256,7.371-4.256,7.371,4.256Z" transform="translate(-341.135 -193.951)" fill="#42e8e0"/>
            <path id="Path_1310" data-name="Path 1310" d="M460.867,267.334l-7.371-4.256,7.371-4.256,7.371,4.256Z" transform="translate(-335.555 -190.729)" fill="#42e8e0" opacity="0.1"/>
          </g>
          <g id="Group_56" data-name="Group 56" transform="translate(103.616 8.546)">
            <path id="Path_1311" data-name="Path 1311" d="M378.369,230.326,371,226.07l7.371-4.256,7.371,4.256Z" transform="translate(-370.997 -221.814)" fill="#42e8e0"/>
            <path id="Path_1312" data-name="Path 1312" d="M387.531,235.616l-7.371-4.256,7.371-4.256,7.371,4.256Z" transform="translate(-365.417 -218.593)" fill="#42e8e0"/>
            <path id="Path_1313" data-name="Path 1313" d="M396.694,240.906l-7.371-4.256,7.371-4.256,7.371,4.256Z" transform="translate(-359.837 -215.371)" fill="#42e8e0"/>
            <path id="Path_1314" data-name="Path 1314" d="M405.856,246.2l-7.371-4.256,7.371-4.256,7.371,4.256Z" transform="translate(-354.257 -212.149)" fill="#42e8e0"/>
            <path id="Path_1315" data-name="Path 1315" d="M415.018,251.486l-7.371-4.256,7.371-4.256,7.371,4.256Z" transform="translate(-348.676 -208.927)" fill="#42e8e0"/>
            <path id="Path_1316" data-name="Path 1316" d="M424.181,256.776l-7.371-4.256,7.371-4.256,7.371,4.256Z" transform="translate(-343.096 -205.705)" fill="#42e8e0"/>
            <path id="Path_1317" data-name="Path 1317" d="M433.343,262.065l-7.371-4.256,7.371-4.256,7.371,4.256Z" transform="translate(-337.516 -202.484)" fill="#42e8e0"/>
            <path id="Path_1318" data-name="Path 1318" d="M442.505,267.355l-7.371-4.256,7.371-4.256,7.371,4.256Z" transform="translate(-331.935 -199.262)" fill="#42e8e0"/>
            <path id="Path_1319" data-name="Path 1319" d="M451.668,272.645l-7.371-4.256,7.371-4.256,7.371,4.256Z" transform="translate(-326.355 -196.04)" fill="#42e8e0"/>
          </g>
          <g id="Group_57" data-name="Group 57" transform="translate(88.814 17.092)">
            <path id="Path_1320" data-name="Path 1320" d="M369.169,235.637l-7.371-4.256,7.371-4.256,7.371,4.256Z" transform="translate(-361.798 -227.126)" fill="#42e8e0"/>
            <path id="Path_1321" data-name="Path 1321" d="M378.332,240.927l-7.371-4.256,7.371-4.256,7.371,4.256Z" transform="translate(-356.218 -223.904)" fill="#42e8e0"/>
            <path id="Path_1322" data-name="Path 1322" d="M387.494,246.217l-7.371-4.256,7.371-4.256,7.371,4.256Z" transform="translate(-350.637 -220.682)" fill="#42e8e0"/>
            <path id="Path_1323" data-name="Path 1323" d="M396.656,251.507l-7.371-4.256L396.656,243l7.371,4.256Z" transform="translate(-345.057 -217.46)" fill="#42e8e0" opacity="0.1"/>
            <path id="Path_1324" data-name="Path 1324" d="M405.819,256.8l-7.371-4.256,7.371-4.256,7.371,4.256Z" transform="translate(-339.477 -214.239)" fill="#42e8e0" opacity="0.4"/>
            <path id="Path_1325" data-name="Path 1325" d="M414.981,262.087l-7.371-4.256,7.371-4.256,7.371,4.256Z" transform="translate(-333.896 -211.017)" fill="#42e8e0" opacity="0.4"/>
            <path id="Path_1326" data-name="Path 1326" d="M424.144,267.377l-7.371-4.256,7.371-4.256,7.371,4.256Z" transform="translate(-328.316 -207.795)" fill="#42e8e0"/>
            <path id="Path_1327" data-name="Path 1327" d="M433.306,272.667l-7.371-4.256,7.371-4.256,7.371,4.256Z" transform="translate(-322.736 -204.573)" fill="#42e8e0"/>
            <path id="Path_1328" data-name="Path 1328" d="M442.468,277.957,435.1,273.7l7.371-4.256,7.371,4.256Z" transform="translate(-317.156 -201.352)" fill="#42e8e0"/>
          </g>
          <g id="Group_58" data-name="Group 58" transform="translate(74.012 25.639)">
            <path id="Path_1329" data-name="Path 1329" d="M359.97,240.949l-7.371-4.256,7.371-4.256,7.371,4.256Z" transform="translate(-352.598 -232.437)" fill="#42e8e0" opacity="0.4"/>
            <path id="Path_1330" data-name="Path 1330" d="M369.132,246.239l-7.371-4.256,7.371-4.256,7.371,4.256Z" transform="translate(-347.018 -229.215)" fill="#42e8e0" opacity="0.4"/>
            <path id="Path_1331" data-name="Path 1331" d="M378.294,251.528l-7.371-4.256,7.371-4.256,7.371,4.256Z" transform="translate(-341.438 -225.994)" fill="#42e8e0" opacity="0.1"/>
            <path id="Path_1332" data-name="Path 1332" d="M387.457,256.818l-7.371-4.256,7.371-4.256,7.371,4.256Z" transform="translate(-335.858 -222.772)" fill="#42e8e0"/>
            <path id="Path_1333" data-name="Path 1333" d="M396.619,262.108l-7.371-4.256,7.371-4.256,7.371,4.256Z" transform="translate(-330.277 -219.55)" fill="#42e8e0"/>
            <path id="Path_1334" data-name="Path 1334" d="M405.782,267.4l-7.371-4.256,7.371-4.256,7.371,4.256Z" transform="translate(-324.697 -216.328)" fill="#42e8e0"/>
            <path id="Path_1335" data-name="Path 1335" d="M414.944,272.688l-7.371-4.256,7.371-4.256,7.371,4.256Z" transform="translate(-319.117 -213.106)" fill="#42e8e0" opacity="0.4"/>
            <path id="Path_1336" data-name="Path 1336" d="M424.107,277.978l-7.371-4.256,7.371-4.256,7.371,4.256Z" transform="translate(-313.536 -209.885)" fill="#42e8e0"/>
            <path id="Path_1337" data-name="Path 1337" d="M433.269,283.268l-7.371-4.256,7.371-4.256,7.371,4.256Z" transform="translate(-307.956 -206.663)" fill="#42e8e0"/>
          </g>
          <g id="Group_59" data-name="Group 59" transform="translate(59.209 34.185)">
            <path id="Path_1338" data-name="Path 1338" d="M350.77,246.26,343.4,242l7.371-4.256L358.141,242Z" transform="translate(-343.399 -237.748)" fill="#42e8e0"/>
            <path id="Path_1339" data-name="Path 1339" d="M359.933,251.55l-7.371-4.256,7.371-4.256,7.371,4.256Z" transform="translate(-337.819 -234.527)" fill="#42e8e0"/>
            <path id="Path_1340" data-name="Path 1340" d="M369.1,256.84l-7.371-4.256,7.371-4.256,7.371,4.256Z" transform="translate(-332.238 -231.305)" fill="#42e8e0"/>
            <path id="Path_1341" data-name="Path 1341" d="M378.257,262.13l-7.371-4.256,7.371-4.256,7.371,4.256Z" transform="translate(-326.658 -228.083)" fill="#42e8e0"/>
            <path id="Path_1342" data-name="Path 1342" d="M387.42,267.42l-7.371-4.256,7.371-4.256,7.371,4.256Z" transform="translate(-321.078 -224.861)" fill="#42e8e0"/>
            <path id="Path_1343" data-name="Path 1343" d="M396.582,272.71l-7.371-4.256,7.371-4.256,7.371,4.256Z" transform="translate(-315.498 -221.64)" fill="#42e8e0"/>
            <path id="Path_1344" data-name="Path 1344" d="M405.745,278l-7.371-4.256,7.371-4.256,7.371,4.256Z" transform="translate(-309.917 -218.418)" fill="#42e8e0"/>
            <path id="Path_1345" data-name="Path 1345" d="M414.907,283.289l-7.371-4.256,7.371-4.256,7.371,4.256Z" transform="translate(-304.337 -215.196)" fill="#42e8e0"/>
            <path id="Path_1346" data-name="Path 1346" d="M424.069,288.579l-7.371-4.256,7.371-4.256,7.371,4.256Z" transform="translate(-298.757 -211.974)" fill="#42e8e0"/>
          </g>
          <g id="Group_60" data-name="Group 60" transform="translate(44.407 42.731)">
            <path id="Path_1347" data-name="Path 1347" d="M341.571,251.571l-7.371-4.256,7.371-4.256,7.371,4.256Z" transform="translate(-334.199 -243.06)" fill="#42e8e0"/>
            <path id="Path_1348" data-name="Path 1348" d="M350.733,256.861l-7.371-4.256,7.371-4.256,7.371,4.256Z" transform="translate(-328.619 -239.838)" fill="#42e8e0"/>
            <path id="Path_1349" data-name="Path 1349" d="M359.9,262.151l-7.371-4.256,7.371-4.256,7.371,4.256Z" transform="translate(-323.039 -236.616)" fill="#42e8e0" opacity="0.4"/>
            <path id="Path_1350" data-name="Path 1350" d="M369.058,267.441l-7.371-4.256,7.371-4.256,7.371,4.256Z" transform="translate(-317.459 -233.394)" fill="#42e8e0"/>
            <path id="Path_1351" data-name="Path 1351" d="M378.22,272.731l-7.371-4.256,7.371-4.256,7.371,4.256Z" transform="translate(-311.878 -230.173)" fill="#42e8e0" opacity="0.1"/>
            <path id="Path_1352" data-name="Path 1352" d="M387.383,278.021l-7.371-4.256,7.371-4.256,7.371,4.256Z" transform="translate(-306.298 -226.951)" fill="#42e8e0"/>
            <path id="Path_1353" data-name="Path 1353" d="M396.545,283.311l-7.371-4.256,7.371-4.256,7.371,4.256Z" transform="translate(-300.718 -223.729)" fill="#42e8e0"/>
            <path id="Path_1354" data-name="Path 1354" d="M405.707,288.6l-7.371-4.256,7.371-4.256,7.371,4.256Z" transform="translate(-295.137 -220.507)" fill="#42e8e0"/>
            <path id="Path_1355" data-name="Path 1355" d="M414.87,293.891l-7.371-4.256,7.371-4.256,7.371,4.256Z" transform="translate(-289.557 -217.285)" fill="#42e8e0"/>
          </g>
          <g id="Group_61" data-name="Group 61" transform="translate(29.605 51.277)">
            <path id="Path_1356" data-name="Path 1356" d="M332.371,256.883,325,252.627l7.371-4.256,7.371,4.256Z" transform="translate(-325 -248.371)" fill="#42e8e0"/>
            <path id="Path_1357" data-name="Path 1357" d="M341.534,262.173l-7.371-4.256,7.371-4.256,7.371,4.256Z" transform="translate(-319.42 -245.149)" fill="#42e8e0"/>
            <path id="Path_1358" data-name="Path 1358" d="M350.7,267.462l-7.371-4.256,7.371-4.256,7.371,4.256Z" transform="translate(-313.839 -241.927)" fill="#42e8e0" opacity="0.4"/>
            <path id="Path_1359" data-name="Path 1359" d="M359.859,272.752l-7.371-4.256,7.371-4.256,7.371,4.256Z" transform="translate(-308.259 -238.706)" fill="#42e8e0"/>
            <path id="Path_1360" data-name="Path 1360" d="M369.021,278.042l-7.371-4.256,7.371-4.256,7.371,4.256Z" transform="translate(-302.679 -235.484)" fill="#42e8e0"/>
            <path id="Path_1361" data-name="Path 1361" d="M378.183,283.332l-7.371-4.256,7.371-4.256,7.371,4.256Z" transform="translate(-297.098 -232.262)" fill="#42e8e0" opacity="0.1"/>
            <path id="Path_1362" data-name="Path 1362" d="M387.346,288.622l-7.371-4.256,7.371-4.256,7.371,4.256Z" transform="translate(-291.518 -229.04)" fill="#42e8e0" opacity="0.4"/>
            <path id="Path_1363" data-name="Path 1363" d="M396.508,293.912l-7.371-4.256,7.371-4.256,7.371,4.256Z" transform="translate(-285.938 -225.818)" fill="#42e8e0"/>
            <path id="Path_1364" data-name="Path 1364" d="M405.67,299.2l-7.371-4.256,7.371-4.256,7.371,4.256Z" transform="translate(-280.358 -222.597)" fill="#42e8e0" opacity="0.1"/>
          </g>
          <g id="Group_62" data-name="Group 62" transform="translate(14.802 59.823)">
            <path id="Path_1365" data-name="Path 1365" d="M323.172,262.194l-7.371-4.256,7.371-4.256,7.371,4.256Z" transform="translate(-315.801 -253.682)" fill="#42e8e0"/>
            <path id="Path_1366" data-name="Path 1366" d="M332.334,267.484l-7.371-4.256,7.371-4.256,7.371,4.256Z" transform="translate(-310.22 -250.461)" fill="#42e8e0" opacity="0.4"/>
            <path id="Path_1367" data-name="Path 1367" d="M341.5,272.774l-7.371-4.256,7.371-4.256,7.371,4.256Z" transform="translate(-304.64 -247.239)" fill="#42e8e0"/>
            <path id="Path_1368" data-name="Path 1368" d="M350.659,278.064l-7.371-4.256,7.371-4.256,7.371,4.256Z" transform="translate(-299.06 -244.017)" fill="#42e8e0"/>
            <path id="Path_1369" data-name="Path 1369" d="M359.821,283.353,352.45,279.1l7.371-4.256,7.371,4.256Z" transform="translate(-293.479 -240.795)" fill="#42e8e0"/>
            <path id="Path_1370" data-name="Path 1370" d="M368.984,288.643l-7.371-4.256,7.371-4.256,7.371,4.256Z" transform="translate(-287.899 -237.574)" fill="#42e8e0"/>
            <path id="Path_1371" data-name="Path 1371" d="M378.146,293.933l-7.371-4.256,7.371-4.256,7.371,4.256Z" transform="translate(-282.319 -234.352)" fill="#42e8e0"/>
            <path id="Path_1372" data-name="Path 1372" d="M387.309,299.223l-7.371-4.256,7.371-4.256,7.371,4.256Z" transform="translate(-276.739 -231.13)" fill="#42e8e0" opacity="0.4"/>
            <path id="Path_1373" data-name="Path 1373" d="M396.471,304.513l-7.371-4.256L396.471,296l7.371,4.256Z" transform="translate(-271.158 -227.908)" fill="#42e8e0"/>
          </g>
          <g id="Group_63" data-name="Group 63" transform="translate(0 68.369)">
            <path id="Path_1374" data-name="Path 1374" d="M313.972,267.505l-7.371-4.256,7.371-4.256,7.371,4.256Z" transform="translate(-306.601 -258.994)" fill="#42e8e0"/>
            <path id="Path_1375" data-name="Path 1375" d="M323.135,272.8l-7.371-4.256,7.371-4.256,7.371,4.256Z" transform="translate(-301.021 -255.772)" fill="#42e8e0" opacity="0.1"/>
            <path id="Path_1376" data-name="Path 1376" d="M332.3,278.085l-7.371-4.256,7.371-4.256,7.371,4.256Z" transform="translate(-295.441 -252.55)" fill="#42e8e0"/>
            <path id="Path_1377" data-name="Path 1377" d="M341.46,283.375l-7.371-4.256,7.371-4.256,7.371,4.256Z" transform="translate(-289.86 -249.328)" fill="#42e8e0"/>
            <path id="Path_1378" data-name="Path 1378" d="M350.622,288.665l-7.371-4.256,7.371-4.256,7.371,4.256Z" transform="translate(-284.28 -246.107)" fill="#42e8e0"/>
            <path id="Path_1379" data-name="Path 1379" d="M359.784,293.955l-7.371-4.256,7.371-4.256,7.371,4.256Z" transform="translate(-278.7 -242.885)" fill="#42e8e0"/>
            <path id="Path_1380" data-name="Path 1380" d="M368.947,299.245l-7.371-4.256,7.371-4.256,7.371,4.256Z" transform="translate(-273.119 -239.663)" fill="#42e8e0" opacity="0.4"/>
            <path id="Path_1381" data-name="Path 1381" d="M378.109,304.534l-7.371-4.256,7.371-4.256,7.371,4.256Z" transform="translate(-267.539 -236.441)" fill="#42e8e0"/>
            <path id="Path_1382" data-name="Path 1382" d="M387.271,309.825l-7.371-4.256,7.371-4.256,7.371,4.256Z" transform="translate(-261.959 -233.219)" fill="#42e8e0"/>
          </g>
        </g>
        <g id="Group_74" data-name="Group 74" transform="translate(131.363 153.486)">
          <g id="Group_65" data-name="Group 65" transform="translate(118.419)">
            <path id="Path_1383" data-name="Path 1383" d="M387.568,320.4l-7.371-4.256,7.371-4.256,7.371,4.256Z" transform="translate(-380.197 -311.893)" fill="#42e8e0"/>
            <path id="Path_1384" data-name="Path 1384" d="M396.731,325.694l-7.371-4.256,7.371-4.256,7.371,4.256Z" transform="translate(-374.617 -308.671)" fill="#42e8e0" opacity="0.1"/>
            <path id="Path_1385" data-name="Path 1385" d="M405.893,330.984l-7.371-4.256,7.371-4.256,7.371,4.256Z" transform="translate(-369.036 -305.449)" fill="#42e8e0" opacity="0.4"/>
            <path id="Path_1386" data-name="Path 1386" d="M415.055,336.274l-7.371-4.256,7.371-4.256,7.371,4.256Z" transform="translate(-363.456 -302.227)" fill="#42e8e0"/>
            <path id="Path_1387" data-name="Path 1387" d="M424.218,341.564l-7.371-4.256,7.371-4.256,7.371,4.256Z" transform="translate(-357.876 -299.006)" fill="#42e8e0" opacity="0.4"/>
            <path id="Path_1388" data-name="Path 1388" d="M433.38,346.854l-7.371-4.256,7.371-4.256,7.371,4.256Z" transform="translate(-352.295 -295.784)" fill="#42e8e0"/>
            <path id="Path_1389" data-name="Path 1389" d="M442.543,352.144l-7.371-4.256,7.371-4.256,7.371,4.256Z" transform="translate(-346.715 -292.562)" fill="#42e8e0"/>
            <path id="Path_1390" data-name="Path 1390" d="M451.7,357.434l-7.371-4.256,7.371-4.256,7.371,4.256Z" transform="translate(-341.135 -289.34)" fill="#42e8e0"/>
            <path id="Path_1391" data-name="Path 1391" d="M460.867,362.723l-7.371-4.256,7.371-4.256,7.371,4.256Z" transform="translate(-335.555 -286.118)" fill="#42e8e0" opacity="0.1"/>
          </g>
          <g id="Group_66" data-name="Group 66" transform="translate(103.616 8.546)">
            <path id="Path_1392" data-name="Path 1392" d="M378.369,325.715,371,321.46l7.371-4.256,7.371,4.256Z" transform="translate(-370.997 -317.204)" fill="#42e8e0"/>
            <path id="Path_1393" data-name="Path 1393" d="M387.531,331.005l-7.371-4.256,7.371-4.256,7.371,4.256Z" transform="translate(-365.417 -313.982)" fill="#42e8e0"/>
            <path id="Path_1394" data-name="Path 1394" d="M396.694,336.3l-7.371-4.256,7.371-4.256,7.371,4.256Z" transform="translate(-359.837 -310.76)" fill="#42e8e0"/>
            <path id="Path_1395" data-name="Path 1395" d="M405.856,341.585l-7.371-4.256,7.371-4.256,7.371,4.256Z" transform="translate(-354.257 -307.539)" fill="#42e8e0"/>
            <path id="Path_1396" data-name="Path 1396" d="M415.018,346.875l-7.371-4.256,7.371-4.256,7.371,4.256Z" transform="translate(-348.676 -304.317)" fill="#42e8e0"/>
            <path id="Path_1397" data-name="Path 1397" d="M424.181,352.165l-7.371-4.256,7.371-4.256,7.371,4.256Z" transform="translate(-343.096 -301.095)" fill="#42e8e0"/>
            <path id="Path_1398" data-name="Path 1398" d="M433.343,357.455l-7.371-4.256,7.371-4.256,7.371,4.256Z" transform="translate(-337.516 -297.873)" fill="#42e8e0"/>
            <path id="Path_1399" data-name="Path 1399" d="M442.505,362.745l-7.371-4.256,7.371-4.256,7.371,4.256Z" transform="translate(-331.935 -294.652)" fill="#42e8e0"/>
            <path id="Path_1400" data-name="Path 1400" d="M451.668,368.035l-7.371-4.256,7.371-4.256,7.371,4.256Z" transform="translate(-326.355 -291.43)" fill="#42e8e0"/>
          </g>
          <g id="Group_67" data-name="Group 67" transform="translate(88.814 17.092)">
            <path id="Path_1401" data-name="Path 1401" d="M369.169,331.027l-7.371-4.256,7.371-4.256,7.371,4.256Z" transform="translate(-361.798 -322.515)" fill="#42e8e0"/>
            <path id="Path_1402" data-name="Path 1402" d="M378.332,336.317l-7.371-4.256,7.371-4.256,7.371,4.256Z" transform="translate(-356.218 -319.293)" fill="#42e8e0"/>
            <path id="Path_1403" data-name="Path 1403" d="M387.494,341.607l-7.371-4.256,7.371-4.256,7.371,4.256Z" transform="translate(-350.637 -316.072)" fill="#42e8e0"/>
            <path id="Path_1404" data-name="Path 1404" d="M396.656,346.9l-7.371-4.256,7.371-4.256,7.371,4.256Z" transform="translate(-345.057 -312.85)" fill="#42e8e0" opacity="0.1"/>
            <path id="Path_1405" data-name="Path 1405" d="M405.819,352.187l-7.371-4.256,7.371-4.256,7.371,4.256Z" transform="translate(-339.477 -309.628)" fill="#42e8e0" opacity="0.4"/>
            <path id="Path_1406" data-name="Path 1406" d="M414.981,357.476l-7.371-4.256,7.371-4.256,7.371,4.256Z" transform="translate(-333.896 -306.406)" fill="#42e8e0" opacity="0.4"/>
            <path id="Path_1407" data-name="Path 1407" d="M424.144,362.766l-7.371-4.256,7.371-4.256,7.371,4.256Z" transform="translate(-328.316 -303.185)" fill="#42e8e0"/>
            <path id="Path_1408" data-name="Path 1408" d="M433.306,368.056l-7.371-4.256,7.371-4.256,7.371,4.256Z" transform="translate(-322.736 -299.963)" fill="#42e8e0"/>
            <path id="Path_1409" data-name="Path 1409" d="M442.468,373.346,435.1,369.09l7.371-4.256,7.371,4.256Z" transform="translate(-317.156 -296.741)" fill="#42e8e0"/>
          </g>
          <g id="Group_68" data-name="Group 68" transform="translate(74.012 25.638)">
            <path id="Path_1410" data-name="Path 1410" d="M359.97,336.338l-7.371-4.256,7.371-4.256,7.371,4.256Z" transform="translate(-352.598 -327.827)" fill="#42e8e0" opacity="0.4"/>
            <path id="Path_1411" data-name="Path 1411" d="M369.132,341.628l-7.371-4.256,7.371-4.256,7.371,4.256Z" transform="translate(-347.018 -324.605)" fill="#42e8e0" opacity="0.4"/>
            <path id="Path_1412" data-name="Path 1412" d="M378.294,346.918l-7.371-4.256,7.371-4.256,7.371,4.256Z" transform="translate(-341.438 -321.383)" fill="#42e8e0" opacity="0.1"/>
            <path id="Path_1413" data-name="Path 1413" d="M387.457,352.208l-7.371-4.256,7.371-4.256,7.371,4.256Z" transform="translate(-335.858 -318.161)" fill="#42e8e0"/>
            <path id="Path_1414" data-name="Path 1414" d="M396.619,357.5l-7.371-4.256,7.371-4.256,7.371,4.256Z" transform="translate(-330.277 -314.939)" fill="#42e8e0"/>
            <path id="Path_1415" data-name="Path 1415" d="M405.782,362.788l-7.371-4.256,7.371-4.256,7.371,4.256Z" transform="translate(-324.697 -311.718)" fill="#42e8e0"/>
            <path id="Path_1416" data-name="Path 1416" d="M414.944,368.078l-7.371-4.256,7.371-4.256,7.371,4.256Z" transform="translate(-319.117 -308.496)" fill="#42e8e0" opacity="0.4"/>
            <path id="Path_1417" data-name="Path 1417" d="M424.107,373.368l-7.371-4.256,7.371-4.256,7.371,4.256Z" transform="translate(-313.536 -305.274)" fill="#42e8e0"/>
            <path id="Path_1418" data-name="Path 1418" d="M433.269,378.657,425.9,374.4l7.371-4.256,7.371,4.256Z" transform="translate(-307.956 -302.052)" fill="#42e8e0"/>
          </g>
          <g id="Group_69" data-name="Group 69" transform="translate(59.209 34.184)">
            <path id="Path_1419" data-name="Path 1419" d="M350.77,341.65l-7.371-4.256,7.371-4.256,7.371,4.256Z" transform="translate(-343.399 -333.138)" fill="#42e8e0"/>
            <path id="Path_1420" data-name="Path 1420" d="M359.933,346.94l-7.371-4.256,7.371-4.256,7.371,4.256Z" transform="translate(-337.819 -329.916)" fill="#42e8e0"/>
            <path id="Path_1421" data-name="Path 1421" d="M369.1,352.229l-7.371-4.256,7.371-4.256,7.371,4.256Z" transform="translate(-332.238 -326.694)" fill="#42e8e0"/>
            <path id="Path_1422" data-name="Path 1422" d="M378.257,357.519l-7.371-4.256,7.371-4.256,7.371,4.256Z" transform="translate(-326.658 -323.473)" fill="#42e8e0"/>
            <path id="Path_1423" data-name="Path 1423" d="M387.42,362.809l-7.371-4.256,7.371-4.256,7.371,4.256Z" transform="translate(-321.078 -320.251)" fill="#42e8e0"/>
            <path id="Path_1424" data-name="Path 1424" d="M396.582,368.1l-7.371-4.256,7.371-4.256,7.371,4.256Z" transform="translate(-315.498 -317.029)" fill="#42e8e0"/>
            <path id="Path_1425" data-name="Path 1425" d="M405.745,373.389l-7.371-4.256,7.371-4.256,7.371,4.256Z" transform="translate(-309.917 -313.807)" fill="#42e8e0"/>
            <path id="Path_1426" data-name="Path 1426" d="M414.907,378.679l-7.371-4.256,7.371-4.256,7.371,4.256Z" transform="translate(-304.337 -310.585)" fill="#42e8e0"/>
            <path id="Path_1427" data-name="Path 1427" d="M424.069,383.969l-7.371-4.256,7.371-4.256,7.371,4.256Z" transform="translate(-298.757 -307.364)" fill="#42e8e0"/>
          </g>
          <g id="Group_70" data-name="Group 70" transform="translate(44.407 42.731)">
            <path id="Path_1428" data-name="Path 1428" d="M341.571,346.961,334.2,342.7l7.371-4.256,7.371,4.256Z" transform="translate(-334.199 -338.449)" fill="#42e8e0"/>
            <path id="Path_1429" data-name="Path 1429" d="M350.733,352.251l-7.371-4.256,7.371-4.256,7.371,4.256Z" transform="translate(-328.619 -335.228)" fill="#42e8e0"/>
            <path id="Path_1430" data-name="Path 1430" d="M359.9,357.541l-7.371-4.256,7.371-4.256,7.371,4.256Z" transform="translate(-323.039 -332.006)" fill="#42e8e0" opacity="0.4"/>
            <path id="Path_1431" data-name="Path 1431" d="M369.058,362.83l-7.371-4.256,7.371-4.256,7.371,4.256Z" transform="translate(-317.459 -328.784)" fill="#42e8e0"/>
            <path id="Path_1432" data-name="Path 1432" d="M378.22,368.12l-7.371-4.256,7.371-4.256,7.371,4.256Z" transform="translate(-311.878 -325.562)" fill="#42e8e0" opacity="0.1"/>
            <path id="Path_1433" data-name="Path 1433" d="M387.383,373.41l-7.371-4.256,7.371-4.256,7.371,4.256Z" transform="translate(-306.298 -322.34)" fill="#42e8e0"/>
            <path id="Path_1434" data-name="Path 1434" d="M396.545,378.7l-7.371-4.256,7.371-4.256,7.371,4.256Z" transform="translate(-300.718 -319.119)" fill="#42e8e0"/>
            <path id="Path_1435" data-name="Path 1435" d="M405.707,383.99l-7.371-4.256,7.371-4.256,7.371,4.256Z" transform="translate(-295.137 -315.897)" fill="#42e8e0"/>
            <path id="Path_1436" data-name="Path 1436" d="M414.87,389.28l-7.371-4.256,7.371-4.256,7.371,4.256Z" transform="translate(-289.557 -312.675)" fill="#42e8e0"/>
          </g>
          <g id="Group_71" data-name="Group 71" transform="translate(29.605 51.277)">
            <path id="Path_1437" data-name="Path 1437" d="M332.371,352.272,325,348.016l7.371-4.256,7.371,4.256Z" transform="translate(-325 -343.761)" fill="#42e8e0"/>
            <path id="Path_1438" data-name="Path 1438" d="M341.534,357.562l-7.371-4.256,7.371-4.256,7.371,4.256Z" transform="translate(-319.42 -340.539)" fill="#42e8e0"/>
            <path id="Path_1439" data-name="Path 1439" d="M350.7,362.852l-7.371-4.256,7.371-4.256,7.371,4.256Z" transform="translate(-313.839 -337.317)" fill="#42e8e0" opacity="0.4"/>
            <path id="Path_1440" data-name="Path 1440" d="M359.859,368.142l-7.371-4.256,7.371-4.256,7.371,4.256Z" transform="translate(-308.259 -334.095)" fill="#42e8e0"/>
            <path id="Path_1441" data-name="Path 1441" d="M369.021,373.432l-7.371-4.256,7.371-4.256,7.371,4.256Z" transform="translate(-302.679 -330.873)" fill="#42e8e0"/>
            <path id="Path_1442" data-name="Path 1442" d="M378.183,378.722l-7.371-4.256,7.371-4.256,7.371,4.256Z" transform="translate(-297.098 -327.652)" fill="#42e8e0" opacity="0.1"/>
            <path id="Path_1443" data-name="Path 1443" d="M387.346,384.011l-7.371-4.256,7.371-4.256,7.371,4.256Z" transform="translate(-291.518 -324.43)" fill="#42e8e0" opacity="0.4"/>
            <path id="Path_1444" data-name="Path 1444" d="M396.508,389.3l-7.371-4.256,7.371-4.256,7.371,4.256Z" transform="translate(-285.938 -321.208)" fill="#42e8e0"/>
            <path id="Path_1445" data-name="Path 1445" d="M405.67,394.591l-7.371-4.256,7.371-4.256,7.371,4.256Z" transform="translate(-280.358 -317.986)" fill="#42e8e0" opacity="0.1"/>
          </g>
          <g id="Group_72" data-name="Group 72" transform="translate(14.802 59.823)">
            <path id="Path_1446" data-name="Path 1446" d="M323.172,357.583l-7.371-4.256,7.371-4.256,7.371,4.256Z" transform="translate(-315.801 -349.072)" fill="#42e8e0"/>
            <path id="Path_1447" data-name="Path 1447" d="M332.334,362.873l-7.371-4.256,7.371-4.256,7.371,4.256Z" transform="translate(-310.22 -345.85)" fill="#42e8e0" opacity="0.4"/>
            <path id="Path_1448" data-name="Path 1448" d="M341.5,368.163l-7.371-4.256,7.371-4.256,7.371,4.256Z" transform="translate(-304.64 -342.628)" fill="#42e8e0"/>
            <path id="Path_1449" data-name="Path 1449" d="M350.659,373.453l-7.371-4.256,7.371-4.256,7.371,4.256Z" transform="translate(-299.06 -339.406)" fill="#42e8e0"/>
            <path id="Path_1450" data-name="Path 1450" d="M359.821,378.743l-7.371-4.256,7.371-4.256,7.371,4.256Z" transform="translate(-293.479 -336.185)" fill="#42e8e0"/>
            <path id="Path_1451" data-name="Path 1451" d="M368.984,384.033l-7.371-4.256,7.371-4.256,7.371,4.256Z" transform="translate(-287.899 -332.963)" fill="#42e8e0"/>
            <path id="Path_1452" data-name="Path 1452" d="M378.146,389.323l-7.371-4.256,7.371-4.256,7.371,4.256Z" transform="translate(-282.319 -329.741)" fill="#42e8e0"/>
            <path id="Path_1453" data-name="Path 1453" d="M387.309,394.613l-7.371-4.256,7.371-4.256,7.371,4.256Z" transform="translate(-276.739 -326.519)" fill="#42e8e0" opacity="0.4"/>
            <path id="Path_1454" data-name="Path 1454" d="M396.471,399.9l-7.371-4.256,7.371-4.256,7.371,4.256Z" transform="translate(-271.158 -323.298)" fill="#42e8e0"/>
          </g>
          <g id="Group_73" data-name="Group 73" transform="translate(0 68.369)">
            <path id="Path_1455" data-name="Path 1455" d="M313.972,362.895l-7.371-4.256,7.371-4.256,7.371,4.256Z" transform="translate(-306.601 -354.383)" fill="#42e8e0"/>
            <path id="Path_1456" data-name="Path 1456" d="M323.135,368.185l-7.371-4.256,7.371-4.256,7.371,4.256Z" transform="translate(-301.021 -351.161)" fill="#42e8e0" opacity="0.1"/>
            <path id="Path_1457" data-name="Path 1457" d="M332.3,373.475l-7.371-4.256,7.371-4.256,7.371,4.256Z" transform="translate(-295.441 -347.94)" fill="#42e8e0"/>
            <path id="Path_1458" data-name="Path 1458" d="M341.46,378.765l-7.371-4.256,7.371-4.256,7.371,4.256Z" transform="translate(-289.86 -344.718)" fill="#42e8e0"/>
            <path id="Path_1459" data-name="Path 1459" d="M350.622,384.054l-7.371-4.256,7.371-4.256,7.371,4.256Z" transform="translate(-284.28 -341.496)" fill="#42e8e0"/>
            <path id="Path_1460" data-name="Path 1460" d="M359.784,389.344l-7.371-4.256,7.371-4.256,7.371,4.256Z" transform="translate(-278.7 -338.274)" fill="#42e8e0"/>
            <path id="Path_1461" data-name="Path 1461" d="M368.947,394.634l-7.371-4.256,7.371-4.255,7.371,4.256Z" transform="translate(-273.119 -335.052)" fill="#42e8e0" opacity="0.4"/>
            <path id="Path_1462" data-name="Path 1462" d="M378.109,399.924l-7.371-4.256,7.371-4.256,7.371,4.256Z" transform="translate(-267.539 -331.831)" fill="#42e8e0"/>
            <path id="Path_1463" data-name="Path 1463" d="M387.271,405.214l-7.371-4.256,7.371-4.255,7.371,4.256Z" transform="translate(-261.959 -328.609)" fill="#42e8e0"/>
          </g>
        </g>
      </g>
      <g id="Group_82" data-name="Group 82" transform="translate(156.324 29.05)">
        <path id="Path_1464" data-name="Path 1464" d="M422.384,227.228,322.114,169.337l100.267-57.889,100.27,57.891Z" transform="translate(-322.114 -111.448)" fill="#00eaff"/>
        <path id="Path_1465" data-name="Path 1465" d="M416.961,215.825l-85.942-49.619,85.94-49.617L502.9,166.208Z" transform="translate(-316.691 -108.318)" fill="#0068ff" opacity="0.7"/>
        <path id="Path_1466" data-name="Path 1466" d="M422.384,365.331,322.114,307.44l100.267-57.889,100.27,57.891Z" transform="translate(-322.114 -27.338)" fill="#00eaff"/>
        <path id="Path_1467" data-name="Path 1467" d="M484.7,147.427V369.64L384.431,427.529V205.316Z" transform="translate(-284.161 -89.536)" fill="#00eaff"/>
        <path id="Path_1468" data-name="Path 1468" d="M322.114,147.426V369.639L422.384,427.53V205.316Z" transform="translate(-322.114 -89.537)" fill="#0068ff"/>
        <g id="Group_76" data-name="Group 76" transform="translate(6.792 72.632)" opacity="0.51">
          <path id="Path_1469" data-name="Path 1469" d="M326.336,156.588V356.322l86.685,50.048V206.636Z" transform="translate(-326.336 -156.588)" fill="#0068ff"/>
        </g>
        <path id="Path_1470" data-name="Path 1470" d="M463.964,180.794v5.874l-70.187,40.522v-5.874Z" transform="translate(-278.468 -69.214)" fill="#0068ff"/>
        <path id="Path_1471" data-name="Path 1471" d="M463.964,196.228V202.1l-70.187,40.522V236.75Z" transform="translate(-278.468 -59.814)" fill="#0068ff"/>
        <path id="Path_1472" data-name="Path 1472" d="M463.964,211.662v5.874l-70.187,40.522v-5.874Z" transform="translate(-278.468 -50.414)" fill="#0068ff"/>
        <path id="Path_1473" data-name="Path 1473" d="M463.964,227.1v5.874l-70.187,40.522v-5.873Z" transform="translate(-278.468 -41.014)" fill="#0068ff"/>
        <path id="Path_1474" data-name="Path 1474" d="M463.964,242.53V248.4l-70.187,40.522v-5.874Z" transform="translate(-278.468 -31.614)" fill="#0068ff"/>
        <path id="Path_1475" data-name="Path 1475" d="M463.964,257.964v5.874L393.778,304.36v-5.874Z" transform="translate(-278.468 -22.214)" fill="#0068ff"/>
        <path id="Path_1476" data-name="Path 1476" d="M422.384,203.791l-98.64-56.95-1.629.941,100.27,57.891,100.267-57.889-1.629-.94Z" transform="translate(-322.114 -89.893)" fill="#00eaff"/>
        <g id="Group_77" data-name="Group 77" transform="translate(0 57.889)" opacity="0.51">
          <path id="Path_1477" data-name="Path 1477" d="M322.114,334.522l100.268-60.54V205.316L322.114,147.426Z" transform="translate(-322.114 -147.426)" fill="#0068ff"/>
        </g>
        <g id="Group_78" data-name="Group 78" transform="translate(85.475 118.318)">
          <path id="Path_1478" data-name="Path 1478" d="M385.614,192.435a8.816,8.816,0,0,0-3.99-6.909,2.793,2.793,0,0,0-2.833-.27v0l-2.824,1.652,1.747.061a4.493,4.493,0,0,0-.079.862,8.819,8.819,0,0,0,3.989,6.909,4.58,4.58,0,0,0,.854.385l-.814,1.521,2.766-1.617v0A2.79,2.79,0,0,0,385.614,192.435Z" transform="translate(-374.791 -184.982)" fill="#00eaff"/>
          <path id="Path_1479" data-name="Path 1479" d="M383.214,193.47c0,2.546-1.786,3.575-3.989,2.3a8.82,8.82,0,0,1-3.989-6.911c0-2.544,1.786-3.575,3.989-2.3A8.819,8.819,0,0,1,383.214,193.47Z" transform="translate(-375.236 -184.353)" fill="url(#linear-gradient-8)"/>
          <path id="Path_1480" data-name="Path 1480" d="M380.878,191.663c0,1.464-1.027,2.058-2.295,1.326a5.072,5.072,0,0,1-2.294-3.976c0-1.463,1.027-2.056,2.294-1.324A5.072,5.072,0,0,1,380.878,191.663Z" transform="translate(-374.595 -183.524)" fill="#0068ff"/>
        </g>
        <g id="Group_79" data-name="Group 79" transform="translate(1.382 66.649)">
          <path id="Path_1481" data-name="Path 1481" d="M333.351,160.325a8.819,8.819,0,0,0-3.99-6.911,2.8,2.8,0,0,0-2.834-.27l0,0L323.7,154.8l1.747.06a4.507,4.507,0,0,0-.079.862,8.816,8.816,0,0,0,3.989,6.909,4.381,4.381,0,0,0,.854.385l-.814,1.521,2.766-1.617h0A2.794,2.794,0,0,0,333.351,160.325Z" transform="translate(-322.528 -152.87)" fill="#00eaff"/>
          <path id="Path_1482" data-name="Path 1482" d="M330.951,161.359c0,2.544-1.786,3.575-3.989,2.3a8.819,8.819,0,0,1-3.989-6.909c0-2.544,1.786-3.575,3.989-2.3A8.822,8.822,0,0,1,330.951,161.359Z" transform="translate(-322.973 -152.241)" fill="url(#linear-gradient-8)"/>
          <path id="Path_1483" data-name="Path 1483" d="M328.615,159.553c0,1.463-1.027,2.056-2.295,1.324a5.072,5.072,0,0,1-2.294-3.974c0-1.464,1.027-2.058,2.294-1.326A5.072,5.072,0,0,1,328.615,159.553Z" transform="translate(-322.332 -151.413)" fill="#0068ff"/>
        </g>
        <g id="Group_80" data-name="Group 80" transform="translate(85.475 317.327)">
          <path id="Path_1484" data-name="Path 1484" d="M385.614,316.117a8.819,8.819,0,0,0-3.99-6.911,2.8,2.8,0,0,0-2.833-.27v0l-2.824,1.653,1.747.061a4.493,4.493,0,0,0-.079.862,8.819,8.819,0,0,0,3.989,6.909,4.581,4.581,0,0,0,.854.385l-.814,1.521,2.766-1.617h0A2.794,2.794,0,0,0,385.614,316.117Z" transform="translate(-374.791 -308.663)" fill="#00eaff"/>
          <path id="Path_1485" data-name="Path 1485" d="M383.214,317.152c0,2.544-1.786,3.575-3.989,2.3a8.819,8.819,0,0,1-3.989-6.909c0-2.546,1.786-3.575,3.989-2.3A8.819,8.819,0,0,1,383.214,317.152Z" transform="translate(-375.236 -308.034)" fill="url(#linear-gradient-8)"/>
          <path id="Path_1486" data-name="Path 1486" d="M380.878,315.346c0,1.463-1.027,2.056-2.295,1.324a5.072,5.072,0,0,1-2.294-3.974c0-1.464,1.027-2.058,2.294-1.326A5.072,5.072,0,0,1,380.878,315.346Z" transform="translate(-374.595 -307.206)" fill="#0068ff"/>
        </g>
        <g id="Group_81" data-name="Group 81" transform="translate(1.382 265.658)">
          <path id="Path_1487" data-name="Path 1487" d="M333.351,284.005a8.814,8.814,0,0,0-3.99-6.909,2.793,2.793,0,0,0-2.834-.272l0,0-2.825,1.654,1.747.06a4.508,4.508,0,0,0-.079.862,8.816,8.816,0,0,0,3.989,6.909,4.374,4.374,0,0,0,.854.385l-.814,1.522,2.766-1.619h0A2.794,2.794,0,0,0,333.351,284.005Z" transform="translate(-322.528 -276.551)" fill="#00eaff"/>
          <path id="Path_1488" data-name="Path 1488" d="M330.951,285.04c0,2.544-1.786,3.575-3.989,2.3a8.817,8.817,0,0,1-3.989-6.909c0-2.544,1.786-3.575,3.989-2.3A8.822,8.822,0,0,1,330.951,285.04Z" transform="translate(-322.973 -275.922)" fill="url(#linear-gradient-8)"/>
          <path id="Path_1489" data-name="Path 1489" d="M328.615,283.233c0,1.463-1.027,2.056-2.295,1.324a5.069,5.069,0,0,1-2.294-3.974c0-1.464,1.027-2.056,2.294-1.326A5.072,5.072,0,0,1,328.615,283.233Z" transform="translate(-322.332 -275.094)" fill="#0068ff"/>
        </g>
      </g>
      <g id="Group_87" data-name="Group 87" transform="translate(156.324)">
        <g id="Group_83" data-name="Group 83">
          <path id="Path_1490" data-name="Path 1490" d="M522.651,129.373V140.96L422.384,198.849l-100.27-57.891V129.371Z" transform="translate(-322.114 -71.483)" fill="url(#linear-gradient-12)"/>
          <path id="Path_1491" data-name="Path 1491" d="M422.384,209.174l-100.27-57.891L422.381,93.394l100.27,57.891Z" transform="translate(-322.114 -93.394)" fill="#00eaff"/>
          <path id="Path_1492" data-name="Path 1492" d="M422.384,186.165l-99.1-57.214-1.172.677,100.27,57.89,100.267-57.889-1.172-.677Z" transform="translate(-322.114 -71.739)" fill="#00eaff"/>
        </g>
        <g id="Group_86" data-name="Group 86" transform="translate(23.147 2.15)">
          <path id="Path_1493" data-name="Path 1493" d="M413.622,190.758,336.5,146.232l77.118-44.524,77.12,44.526Z" transform="translate(-336.499 -90.48)" fill="#0f054c"/>
          <g id="Group_85" data-name="Group 85" transform="translate(0)">
            <path id="Path_1494" data-name="Path 1494" d="M413.622,190.76,336.5,146.233l77.12-44.525,77.122,44.527Z" transform="translate(-336.5 -90.48)" opacity="0.5" fill="url(#linear-gradient-13)"/>
            <g id="Group_84" data-name="Group 84">
              <path id="Path_1495" data-name="Path 1495" d="M384.429,94.73l77.122,44.526v11.227l-77.122-44.527Z" transform="translate(-307.309 -94.73)" opacity="0.5" fill="url(#linear-gradient-13)"/>
              <path id="Path_1496" data-name="Path 1496" d="M413.622,105.957,336.5,150.482V139.255L413.62,94.73Z" transform="translate(-336.5 -94.73)" opacity="0.5" fill="url(#linear-gradient-13)"/>
              <path id="Path_1497" data-name="Path 1497" d="M413.622,183.782,336.5,139.255,413.62,94.73l77.122,44.526Z" transform="translate(-336.5 -94.73)" opacity="0.5" fill="url(#linear-gradient-13)"/>
              <path id="Path_1498" data-name="Path 1498" d="M396.094,146.928l-30.816-17.792,30.815-17.791,30.816,17.792Z" transform="translate(-318.973 -84.611)" fill="#42e8e0" opacity="0.5"/>
              <path id="Path_1499" data-name="Path 1499" d="M396.093,112.982l29.4,16.973,1.418-.819-30.816-17.792-30.815,17.792,1.418.819Z" transform="translate(-318.973 -84.611)" fill="#42e8e0" opacity="0.5"/>
              <path id="Path_1500" data-name="Path 1500" d="M384.43,166.928v11.227l77.12-44.525V122.4Z" transform="translate(-307.308 -77.876)" opacity="0.5" fill="url(#linear-gradient-13)"/>
            </g>
            <path id="Path_1501" data-name="Path 1501" d="M336.5,122.4v11.227l77.122,44.527V166.928Z" transform="translate(-336.5 -77.877)" opacity="0.5" fill="url(#linear-gradient-13)"/>
          </g>
          <path id="Path_1502" data-name="Path 1502" d="M413.622,165.935l-76.061-43.914-1.062.613,77.122,44.526,77.12-44.525-1.062-.613Z" transform="translate(-336.5 -78.109)" fill="#42e8e0" opacity="0.8"/>
        </g>
      </g>
    </g>
    <g id="Group_89" data-name="Group 89" transform="translate(260.418 206.562)">
      <path id="Path_1503" data-name="Path 1503" d="M318.12,311.317V298.123q3.966,2.124,8.1,4.142v13.2q-4.139-2.018-8.1-4.143Zm-25.986-16.486V270.516q3.295,2.481,6.787,4.871V299.7q-3.492-2.387-6.787-4.871Zm12.386,8.557V274.709q3.642,2.31,7.472,4.521v28.68q-3.83-2.211-7.472-4.523ZM271.29,276V244.183q2.529,2.783,5.281,5.485v31.819q-2.751-2.7-5.281-5.485Zm9.741,9.685V251.216q2.925,2.638,6.06,5.192V290.88q-3.135-2.553-6.06-5.194ZM256.2,255.192V217.819q1.682,3.036,3.611,6.007V261.2q-1.928-2.971-3.611-6.007Zm6.785,10.626V217.2q2.117,2.918,4.47,5.762V271.58q-2.353-2.846-4.47-5.762ZM251.01,244.163v-54.91q1.224,3.142,2.706,6.227v54.91q-1.482-3.085-2.706-6.227ZM342.9,256.349c-52.244-21.048-88.34-54.3-95.9-92.39v78.09c7.559,38.094,43.655,71.342,95.9,92.39v-78.09Z" transform="translate(-246.997 -151.251)" fill="#42e8e0" opacity="0.502"/>
      <path id="Path_1504" data-name="Path 1504" d="M441.851,305V287.387q13.485-.736,26.49-2.352V302.65q-12.992,1.61-26.49,2.352Zm-42.245.082v-32.1q8.078.408,16.316.492,5.626.058,11.194-.042v32.1q-5.566.1-11.194.043-8.235-.082-16.316-.492Zm-40.72-4.212V251.788q12.775,2.023,26.123,3.2v49.084q-13.335-1.173-26.123-3.2Zm123.37-.209V248.824q12.681-2.059,24.739-4.916v51.839q-12.044,2.848-24.739,4.916ZM527.828,226.5c-33.283,10.242-71.459,15.886-111.907,15.481a380.411,380.411,0,0,1-79.876-9.083v78.092a380.618,380.618,0,0,0,79.876,9.083c40.448.405,78.624-5.241,111.907-15.482V226.5Z" transform="translate(-192.763 -113.159)" fill="#42e8e0" opacity="0.502"/>
      <path id="Path_1505" data-name="Path 1505" d="M494.75,291.739V276.615c36.443-21.516,60.165-50.207,64.043-82.124v15.122c-3.878,31.917-27.6,60.608-64.043,82.126Zm64.569-57.586V156.061c-1.162,38.2-30.684,72.293-76.853,95.8v78.09c46.168-23.508,75.691-57.6,76.853-95.8Z" transform="translate(-103.586 -156.061)" fill="#42e8e0" opacity="0.502"/>
      <path id="Path_1506" data-name="Path 1506" d="M554.144,179.945c-3.878,31.917-27.6,60.608-64.043,82.124v15.123c36.443-21.518,60.165-50.209,64.043-82.126V179.945Z" transform="translate(-98.936 -141.515)" fill="#42e8e0" opacity="0.753"/>
      <path id="Path_1507" data-name="Path 1507" d="M376.363,245.421q-13.335-1.171-26.123-3.2V291.3q12.775,2.023,26.123,3.2V245.421Z" transform="translate(-184.117 -103.588)" fill="#42e8e0"/>
      <path id="Path_1508" data-name="Path 1508" d="M428.292,262.879q-12.992,1.61-26.49,2.353v17.616q13.485-.734,26.49-2.352V262.879Z" transform="translate(-152.714 -91.004)" fill="#42e8e0"/>
      <path id="Path_1509" data-name="Path 1509" d="M451.652,237.32q-12.044,2.85-24.739,4.916v51.839q12.681-2.059,24.739-4.916V237.32Z" transform="translate(-137.42 -106.571)" fill="#42e8e0"/>
      <path id="Path_1510" data-name="Path 1510" d="M403.057,255.839q-5.566.1-11.194.042-8.235-.082-16.316-.492v32.1q8.078.408,16.316.492,5.626.056,11.194-.043v-32.1Z" transform="translate(-168.704 -95.567)" fill="#42e8e0" opacity="0.753"/>
      <path id="Path_1511" data-name="Path 1511" d="M252.2,185.906q-1.482-3.085-2.706-6.227v54.91q1.224,3.142,2.706,6.227v-54.91Z" transform="translate(-245.478 -141.677)" fill="#42e8e0"/>
      <path id="Path_1512" data-name="Path 1512" d="M256.327,203.439q-1.928-2.971-3.611-6.007v37.373q1.682,3.036,3.611,6.007V203.439Z" transform="translate(-243.514 -130.864)" fill="#42e8e0"/>
      <path id="Path_1513" data-name="Path 1513" d="M261.4,202.809q-2.353-2.843-4.47-5.762v48.619q2.117,2.916,4.47,5.762V202.809Z" transform="translate(-240.946 -131.099)" fill="#42e8e0" opacity="0.753"/>
      <path id="Path_1514" data-name="Path 1514" d="M267.376,219.3q-2.752-2.7-5.281-5.485v31.819q2.529,2.783,5.281,5.485V219.3Z" transform="translate(-237.802 -120.885)" fill="#42e8e0"/>
      <path id="Path_1515" data-name="Path 1515" d="M274.209,223.38q-3.135-2.554-6.06-5.192v34.471q2.925,2.64,6.06,5.194V223.38Z" transform="translate(-234.115 -118.223)" fill="#42e8e0" opacity="0.753"/>
      <path id="Path_1516" data-name="Path 1516" d="M281.836,235.054q-3.492-2.39-6.787-4.871V254.5q3.295,2.481,6.787,4.871V235.054Z" transform="translate(-229.912 -110.917)" fill="#42e8e0" opacity="0.753"/>
      <path id="Path_1517" data-name="Path 1517" d="M290.219,237.31q-3.83-2.211-7.472-4.521v28.678q3.642,2.312,7.472,4.523V237.31Z" transform="translate(-225.224 -109.33)" fill="#42e8e0" opacity="0.753"/>
      <path id="Path_1518" data-name="Path 1518" d="M299.3,251.482q-4.139-2.015-8.1-4.142v13.194q3.966,2.126,8.1,4.143v-13.2Z" transform="translate(-220.076 -100.468)" fill="#42e8e0" opacity="0.753"/>
    </g>
  </g>
</svg>
