<svg xmlns="http://www.w3.org/2000/svg" xmlns:xlink="http://www.w3.org/1999/xlink" width="151.277" height="50.165" viewBox="0 0 151.277 50.165">
  <defs>
    <linearGradient id="linear-gradient" x1="0.663" y1="0.662" x2="10.764" y2="10.689" gradientUnits="objectBoundingBox">
      <stop offset="0" stop-color="#0068ff"/>
      <stop offset="1" stop-color="aqua"/>
    </linearGradient>
    <linearGradient id="linear-gradient-2" x1="-0.276" y1="-0.311" x2="9.061" y2="9.447" xlink:href="#linear-gradient"/>
    <linearGradient id="linear-gradient-3" x1="-1.343" y1="-1.289" x2="8.756" y2="8.738" xlink:href="#linear-gradient"/>
    <linearGradient id="linear-gradient-4" x1="-2.19" y1="-2.322" x2="8.095" y2="7.704" xlink:href="#linear-gradient"/>
    <linearGradient id="linear-gradient-5" x1="-18.762" y1="-2.964" x2="36.978" y2="7.06" xlink:href="#linear-gradient"/>
    <linearGradient id="linear-gradient-6" x1="-3.782" y1="-3.637" x2="6.316" y2="6.12" xlink:href="#linear-gradient"/>
    <linearGradient id="linear-gradient-7" x1="-4.735" y1="-4.769" x2="5.355" y2="5.256" xlink:href="#linear-gradient"/>
    <linearGradient id="linear-gradient-8" x1="-7.154" y1="-6.142" x2="3.838" y2="3.885" xlink:href="#linear-gradient"/>
    <linearGradient id="linear-gradient-9" x1="-8.149" y1="-7.057" x2="2.838" y2="2.975" xlink:href="#linear-gradient"/>
    <linearGradient id="linear-gradient-10" x1="-9.018" y1="-8.165" x2="2.091" y2="1.864" xlink:href="#linear-gradient"/>
    <linearGradient id="linear-gradient-11" x1="1.345" y1="0.685" x2="-0.042" y2="0.381" xlink:href="#linear-gradient"/>
    <linearGradient id="linear-gradient-12" x1="0.446" y1="1.384" x2="0.543" y2="-0.199" xlink:href="#linear-gradient"/>
    <linearGradient id="linear-gradient-13" x1="0.013" y1="0.726" x2="1.034" y2="0.252" xlink:href="#linear-gradient"/>
    <linearGradient id="linear-gradient-14" x1="0" y1="0.5" x2="1" y2="0.5" xlink:href="#linear-gradient"/>
    <linearGradient id="linear-gradient-15" x1="0" y1="0.5" x2="1" y2="0.5" xlink:href="#linear-gradient"/>
    <linearGradient id="linear-gradient-16" x1="0" y1="0.5" x2="1" y2="0.5" xlink:href="#linear-gradient"/>
    <linearGradient id="linear-gradient-17" x1="0" y1="0.5" x2="1" y2="0.5" xlink:href="#linear-gradient"/>
    <linearGradient id="linear-gradient-18" x1="0" y1="0.5" x2="1" y2="0.5" xlink:href="#linear-gradient"/>
    <linearGradient id="linear-gradient-19" x1="0" y1="0.5" x2="1" y2="0.5" xlink:href="#linear-gradient"/>
  </defs>
  <g id="Sideways_Logo" data-name="Sideways Logo" transform="translate(-427.3 -654.03)">
    <g id="Group_5" data-name="Group 5" transform="translate(477.779 669.765)">
      <path id="Path_25" data-name="Path 25" d="M1135.186,871.432a.927.927,0,0,0-.488-.333.944.944,0,0,0-.6.036.886.886,0,0,0-.449.381l-4.179,7.267-4.183-7.267a.765.765,0,0,0-.191-.229.839.839,0,0,0-.249-.149.974.974,0,0,0-.288-.065,1.017,1.017,0,0,0-.3.026.916.916,0,0,0-.675.895v9.344h1.835v-6.03l3.269,5.727a.817.817,0,0,0,.329.333.941.941,0,0,0,.449.113.991.991,0,0,0,.462-.113.806.806,0,0,0,.336-.333l3.256-5.727v6.03h1.851v-9.345A.9.9,0,0,0,1135.186,871.432Z" transform="translate(-1123.59 -871.067)" fill="#fff"/>
      <path id="Path_26" data-name="Path 26" d="M1323.755,875.086a.749.749,0,0,1,.552-.191h6.621V873.06h-6.621a2.739,2.739,0,0,0-.85.12,2.488,2.488,0,0,0-.659.32,2.314,2.314,0,0,0-.491.465,2.619,2.619,0,0,0-.333.546,2.765,2.765,0,0,0-.187.578,2.862,2.862,0,0,0-.058.549v4.971a2.737,2.737,0,0,0,.12.85,2.389,2.389,0,0,0,.32.666,2.3,2.3,0,0,0,.462.488,2.92,2.92,0,0,0,.549.329,2.769,2.769,0,0,0,.578.184,2.622,2.622,0,0,0,.549.062h6.621v-1.835h-6.621a.679.679,0,0,1-.742-.743v-4.958A.777.777,0,0,1,1323.755,875.086Z" transform="translate(-1307.365 -872.915)" fill="#fff"/>
      <path id="Path_27" data-name="Path 27" d="M1558.047,879.252a2.742,2.742,0,0,0-.365-.762,2.47,2.47,0,0,0-.526-.568,3.134,3.134,0,0,0-.623-.394,3.088,3.088,0,0,0-.659-.229,3.2,3.2,0,0,0-.63-.08h-4.238a1.074,1.074,0,0,1-.814-.307,1.159,1.159,0,0,1-.294-.837,1.18,1.18,0,0,1,.294-.839,1.045,1.045,0,0,1,.814-.32h6.25V873.08h-6.25a3.229,3.229,0,0,0-.959.158,2.84,2.84,0,0,0-1.693,1.44,3.036,3.036,0,0,0-.294,1.4,3.07,3.07,0,0,0,.294,1.4,2.782,2.782,0,0,0,.737.924,2.864,2.864,0,0,0,.956.513,3.327,3.327,0,0,0,.959.158h4.225a1.244,1.244,0,0,1,.462.084,1,1,0,0,1,.352.239,1.056,1.056,0,0,1,.223.368,1.356,1.356,0,0,1,.078.465,1.158,1.158,0,0,1-.294.833,1.061,1.061,0,0,1-.821.313h-7.083v1.835h7.083a2.961,2.961,0,0,0,.63-.071,3,3,0,0,0,.662-.22,3.106,3.106,0,0,0,.626-.381,2.327,2.327,0,0,0,.53-.565,2.907,2.907,0,0,0,.365-.766,3.53,3.53,0,0,0,0-1.951Z" transform="translate(-1517.287 -872.934)" fill="#fff"/>
      <rect id="Rectangle_15" data-name="Rectangle 15" width="4.239" height="1.85" transform="translate(47.084 4.283)" fill="#fff"/>
      <path id="Path_28" data-name="Path 28" d="M1725.285,873.06h-8.27a.958.958,0,0,0-.367.07.864.864,0,0,0-.293.2.94.94,0,0,0-.265.657v6.624a2.558,2.558,0,0,0,.258,1.2,2.434,2.434,0,0,0,1.479,1.24,2.927,2.927,0,0,0,.833.134h6.624v-1.836h-6.61a.756.756,0,0,1-.558-.191.747.747,0,0,1-.191-.551V874.9h7.359V873.06Z" transform="translate(-1673.135 -872.915)" fill="#fff"/>
      <path id="Path_29" data-name="Path 29" d="M1882.064,879.875a3.687,3.687,0,0,0,.724-.078,3.468,3.468,0,0,0,.763-.251,3.673,3.673,0,0,0,.724-.442,2.983,2.983,0,0,0,.611-.646,3.158,3.158,0,0,0,.421-.872,3.738,3.738,0,0,0,.155-1.123v-1.172a2.542,2.542,0,0,0-.117-.727,2.18,2.18,0,0,0-.381-.724,2.11,2.11,0,0,0-.689-.557,2.209,2.209,0,0,0-1.038-.223h-6.97a.96.96,0,0,0-.367.07.866.866,0,0,0-.293.2.939.939,0,0,0-.265.657v9.2h1.836V874.9h6.059a1.086,1.086,0,0,1,.123.007.3.3,0,0,1,.127.046.281.281,0,0,1,.1.12.564.564,0,0,1,.039.236v1.159a1.7,1.7,0,0,1-.113.639,1.339,1.339,0,0,1-.321.476,1.583,1.583,0,0,1-.495.315,2.131,2.131,0,0,1-.632.145h-2.52v2.106l3.515,3.042h2.839Z" transform="translate(-1820.84 -872.915)" fill="#fff"/>
      <path id="Path_30" data-name="Path 30" d="M2041.566,873.07l-3.572,7.293-3.559-7.293h-2.055l4.787,9.768a.943.943,0,0,0,.342.362.924.924,0,0,0,.975,0,.9.9,0,0,0,.336-.362l4.793-9.768Z" transform="translate(-1966.495 -872.925)" fill="#fff"/>
      <path id="Path_31" data-name="Path 31" d="M2218.255,873.06h-8.27a.958.958,0,0,0-.367.07.864.864,0,0,0-.293.2.938.938,0,0,0-.194.3.928.928,0,0,0-.07.36v6.624a2.552,2.552,0,0,0,.258,1.2,2.435,2.435,0,0,0,1.479,1.24,2.934,2.934,0,0,0,.833.134h6.624v-1.836h-6.61a.756.756,0,0,1-.558-.191.748.748,0,0,1-.19-.551V874.9h7.358V873.06Z" transform="translate(-2130.366 -872.915)" fill="#fff"/>
      <rect id="Rectangle_16" data-name="Rectangle 16" width="3.899" height="1.85" transform="translate(83.164 4.283)" fill="#fff"/>
      <path id="Path_32" data-name="Path 32" d="M2375.033,879.875a3.691,3.691,0,0,0,.724-.078,3.466,3.466,0,0,0,.763-.251,3.661,3.661,0,0,0,.723-.442,2.975,2.975,0,0,0,.611-.646,3.161,3.161,0,0,0,.421-.872,3.738,3.738,0,0,0,.155-1.123v-1.172a2.546,2.546,0,0,0-.117-.727,2.183,2.183,0,0,0-.382-.724,2.11,2.11,0,0,0-.689-.557,2.207,2.207,0,0,0-1.038-.223h-6.97a.962.962,0,0,0-.368.07.864.864,0,0,0-.293.2.935.935,0,0,0-.264.657v9.2h1.836V874.9h6.059a1.088,1.088,0,0,1,.123.007.3.3,0,0,1,.127.046.28.28,0,0,1,.1.12.559.559,0,0,1,.04.236v1.159a1.693,1.693,0,0,1-.114.639,1.337,1.337,0,0,1-.321.476,1.584,1.584,0,0,1-.494.315,2.132,2.132,0,0,1-.632.145h-2.561v2.071l3.557,3.077h2.839Z" transform="translate(-2278.071 -872.915)" fill="#fff"/>
    </g>
    <g id="Group_6" data-name="Group 6" transform="translate(490.137 687.183)">
      <path id="Path_33" data-name="Path 33" d="M1297.4,1112.14v1.676h-2.613v-1.676h-.746v4.106h.746v-1.68h2.613v1.68h.743v-4.106Z" transform="translate(-1294.04 -1112.081)" fill="url(#linear-gradient)"/>
      <path id="Path_34" data-name="Path 34" d="M1408.839,1112.37a1.584,1.584,0,0,0-.359-.546,1.607,1.607,0,0,0-.542-.355,1.748,1.748,0,0,0-.682-.129h-1.008a1.778,1.778,0,0,0-.685.129,1.618,1.618,0,0,0-.9.9,1.838,1.838,0,0,0-.129.688v.785a1.838,1.838,0,0,0,.129.688,1.656,1.656,0,0,0,.362.546,1.607,1.607,0,0,0,.542.355,1.828,1.828,0,0,0,.685.126h1.008a1.8,1.8,0,0,0,.682-.126,1.6,1.6,0,0,0,.542-.355,1.661,1.661,0,0,0,.359-.546,1.767,1.767,0,0,0,.129-.688v-.785A1.777,1.777,0,0,0,1408.839,1112.37Zm-.614,1.472a1.121,1.121,0,0,1-.071.4.875.875,0,0,1-.507.5,1.045,1.045,0,0,1-.4.071h-1a1.047,1.047,0,0,1-.4-.071.887.887,0,0,1-.307-.2.874.874,0,0,1-.2-.307,1.121,1.121,0,0,1-.068-.4v-.785a1.1,1.1,0,0,1,.068-.4.9.9,0,0,1,.2-.307.941.941,0,0,1,.307-.2,1.123,1.123,0,0,1,.4-.071h1.008a1.119,1.119,0,0,1,.394.071.859.859,0,0,1,.5.5,1.128,1.128,0,0,1,.071.4v.785Z" transform="translate(-1396.52 -1111.339)" fill="url(#linear-gradient-2)"/>
      <path id="Path_35" data-name="Path 35" d="M1521.427,1114.64a1.1,1.1,0,0,0-.145-.307,1.062,1.062,0,0,0-.213-.233,1.237,1.237,0,0,0-.255-.158,1.2,1.2,0,0,0-.268-.094,1.462,1.462,0,0,0-.252-.033h-1.718a.451.451,0,0,1-.333-.123.481.481,0,0,1-.116-.339.493.493,0,0,1,.116-.342.429.429,0,0,1,.333-.129h2.532v-.743h-2.532a1.276,1.276,0,0,0-.391.065,1.189,1.189,0,0,0-.388.207,1.15,1.15,0,0,0-.3.375,1.4,1.4,0,0,0,0,1.134,1.086,1.086,0,0,0,.3.375,1.123,1.123,0,0,0,.388.207,1.273,1.273,0,0,0,.391.065h1.712a.509.509,0,0,1,.187.036.392.392,0,0,1,.142.1.42.42,0,0,1,.091.149.516.516,0,0,1,.033.191.463.463,0,0,1-.12.336.433.433,0,0,1-.333.126h-2.872v.746h2.872a1.206,1.206,0,0,0,.255-.029,1.224,1.224,0,0,0,.268-.091,1.251,1.251,0,0,0,.255-.155,1.037,1.037,0,0,0,.213-.226,1.232,1.232,0,0,0,.149-.313,1.263,1.263,0,0,0,.055-.394A1.3,1.3,0,0,0,1521.427,1114.64Z" transform="translate(-1501.188 -1112.081)" fill="url(#linear-gradient-3)"/>
      <path id="Path_36" data-name="Path 36" d="M1621.18,1112.14v.743h1.644v3.362h.743v-3.362h1.641v-.743Z" transform="translate(-1597.463 -1112.081)" fill="url(#linear-gradient-4)"/>
      <path id="Path_37" data-name="Path 37" d="M1728.06,1112.14v4.106h.743v-4.106Z" transform="translate(-1696.595 -1112.081)" fill="url(#linear-gradient-5)"/>
      <path id="Path_38" data-name="Path 38" d="M1797.356,1111.39v2.89l-2.719-2.836a.34.34,0,0,0-.191-.107.367.367,0,0,0-.381.162.336.336,0,0,0-.065.207v3.789h.743v-2.89l2.719,2.839a.286.286,0,0,0,.126.081.34.34,0,0,0,.139.026.413.413,0,0,0,.145-.026.378.378,0,0,0,.12-.081.351.351,0,0,0,.078-.12.325.325,0,0,0,.033-.149v-3.786h-.747Z" transform="translate(-1757.754 -1111.332)" fill="url(#linear-gradient-6)"/>
      <path id="Path_39" data-name="Path 39" d="M1909.488,1114.028a.38.38,0,0,0-.2-.2.362.362,0,0,0-.149-.03h-1.713v.75h1.344v.933h-2.316a.273.273,0,0,1-.3-.3v-2.01a.31.31,0,0,1,.078-.229.3.3,0,0,1,.223-.078h3.026v-.745h-3.026a1.119,1.119,0,0,0-.344.049.973.973,0,0,0-.267.13.9.9,0,0,0-.2.188,1.056,1.056,0,0,0-.135.222,1.14,1.14,0,0,0-.076.235,1.117,1.117,0,0,0-.025.222v2.016a1.131,1.131,0,0,0,.049.345.977.977,0,0,0,.13.269.889.889,0,0,0,.188.2,1.1,1.1,0,0,0,.222.133,1.2,1.2,0,0,0,.235.076,1.136,1.136,0,0,0,.222.025h2.685a.372.372,0,0,0,.149-.029.353.353,0,0,0,.119-.079.381.381,0,0,0,.079-.119.389.389,0,0,0,.029-.149v-1.678A.388.388,0,0,0,1909.488,1114.028Z" transform="translate(-1861.087 -1112.063)" fill="url(#linear-gradient-7)"/>
      <path id="Path_40" data-name="Path 40" d="M2087.143,1115.49v-3.36h-.743v3.731a.453.453,0,0,0,.026.149.386.386,0,0,0,.081.116.31.31,0,0,0,.12.081.364.364,0,0,0,.149.029h3.394v-.746h-3.026Z" transform="translate(-2028.956 -1112.072)" fill="url(#linear-gradient-8)"/>
      <path id="Path_41" data-name="Path 41" d="M2190.326,1115.49v-3.36h-.746v3.731a.391.391,0,0,0,.029.149.4.4,0,0,0,.2.2.389.389,0,0,0,.149.029h3.4v-.746h-3.026Z" transform="translate(-2124.656 -1112.072)" fill="url(#linear-gradient-9)"/>
      <path id="Path_42" data-name="Path 42" d="M2292.874,1112.951a.3.3,0,0,1,.223-.078h2.684v-.743H2293.1a1.138,1.138,0,0,0-.346.049.947.947,0,0,0-.265.129.924.924,0,0,0-.2.187,1.122,1.122,0,0,0-.136.223,1.24,1.24,0,0,0-.074.236,1.134,1.134,0,0,0-.026.22v2.015a1.135,1.135,0,0,0,.049.346.951.951,0,0,0,.133.268.859.859,0,0,0,.187.2,1.2,1.2,0,0,0,.22.135,1.327,1.327,0,0,0,.236.074,1.165,1.165,0,0,0,.223.026h2.684v-.746H2293.1a.271.271,0,0,1-.3-.3v-2.009A.314.314,0,0,1,2292.874,1112.951Z" transform="translate(-2219.696 -1112.072)" fill="url(#linear-gradient-10)"/>
    </g>
    <g id="Group_8" data-name="Group 8" transform="translate(427.3 654.03)">
      <g id="Group_7" data-name="Group 7" transform="translate(0 0)">
        <path id="Path_43" data-name="Path 43" d="M711.856,870.33l0,.158v.039l-.265,23.236L691.84,904.745l-.058.032-.062.036V881.021l14.583-7.742,5.407-2.872Z" transform="translate(-672.55 -854.649)" fill="url(#linear-gradient-11)"/>
        <path id="Path_44" data-name="Path 44" d="M466.6,733.839l-.142-.08-3.323-1.877-3.715-2.1v.779h-.892v-.892h.688l-1.5-.846h-1.6v-.9l-1.515-.856V728.6h-2.671v-2.674h.649L447.393,723v1.46h-2.674v-.5l-17.419,9.9.178.1,18.559,10.29.433.239.12.068,14.315-7.635,5.7-3.039.036-.02Zm-7.07-1.741h2.138v2.142h-2.138Zm-10.378.513h-1.56v-1.56h1.56Zm5.368-2.716h2.138v2.138h-2.138Zm-.737,4.344h2.138v2.138h-2.138Zm-3.185-3.634h2.229v2.229H450.6Zm-4.189-4.9h4.011v4.011h-4.011Zm-9.645,6.573H438.9v2.138h-2.138Zm9.267,7.484v-2.138h2.138v2.138Z" transform="translate(-427.3 -718)" fill="url(#linear-gradient-12)"/>
        <path id="Path_45" data-name="Path 45" d="M448.862,883.474v23.611l-.058-.036-.062-.036-17.723-10.62-1.269-.759V872.78l18.559,10.387.433.239Z" transform="translate(-429.572 -856.921)" fill="url(#linear-gradient-13)"/>
        <rect id="Rectangle_17" data-name="Rectangle 17" width="2.673" height="2.673" transform="translate(23.523 3.564)" fill="url(#linear-gradient-14)"/>
        <rect id="Rectangle_18" data-name="Rectangle 18" width="1.514" height="1.514" transform="translate(28.379 4.945)" fill="url(#linear-gradient-15)"/>
        <rect id="Rectangle_19" data-name="Rectangle 19" width="1.514" height="1.514" transform="translate(31.008 8.108)" fill="url(#linear-gradient-16)"/>
        <rect id="Rectangle_20" data-name="Rectangle 20" width="1.515" height="1.515" transform="translate(36.353 6.104)" fill="url(#linear-gradient-17)"/>
        <rect id="Rectangle_21" data-name="Rectangle 21" width="3.965" height="3.965" transform="translate(30.785)" fill="url(#linear-gradient-18)"/>
        <path id="Path_46" data-name="Path 46" d="M867.773,815.04v.113l-.2-.113Z" transform="translate(-835.651 -803.367)"/>
        <rect id="Rectangle_22" data-name="Rectangle 22" width="0.891" height="0.891" transform="translate(35.106 11.806)" fill="url(#linear-gradient-19)"/>
      </g>
      <path id="Path_47" data-name="Path 47" d="M945.252,739.792h-.342q.116-.655.213-1.318l.129-.194Z" transform="translate(-907.384 -732.172)" opacity="0.09"/>
      <path id="Path_48" data-name="Path 48" d="M485.15,847.5l-.036.02-.265,23.236L465.1,881.734v.068l-.058-.036-.062.036v-.071L447.26,871.11a39.367,39.367,0,0,0,17.723-5.374l.12-.071a37.984,37.984,0,0,0,4.787-3.365,38.9,38.9,0,0,0,9.528-11.744c.051-.1.1-.191.149-.288a38.3,38.3,0,0,0,2.084-4.748l3.323,1.877.145-.078,0,.158Z" transform="translate(-445.813 -831.637)" opacity="0.09"/>
    </g>
  </g>
</svg>
