<svg xmlns="http://www.w3.org/2000/svg" xmlns:xlink="http://www.w3.org/1999/xlink" width="150" height="134" viewBox="0 0 150 134">
  <defs>
    <clipPath id="clip-path">
      <rect id="Image" width="150" height="134" transform="translate(221 1153)" fill="#fff"/>
    </clipPath>
    <linearGradient id="linear-gradient" x1="0.5" x2="0.5" y2="1" gradientUnits="objectBoundingBox">
      <stop offset="0" stop-color="#00e6ff"/>
      <stop offset="1" stop-color="#0068ff"/>
    </linearGradient>
  </defs>
  <g id="Mask_Group_6" data-name="Mask Group 6" transform="translate(-221 -1153)" clip-path="url(#clip-path)">
    <path id="online-support" d="M136.161,128.688a15.307,15.307,0,0,0-4.212-10.571l.962-7.69A141.809,141.809,0,0,0,134,92.935,21.622,21.622,0,0,0,113.336,71.37a12.892,12.892,0,0,0,3.374-8.693V28.1A8.646,8.646,0,0,0,99.62,26.238c-.184.058-.352.143-.53.216a4.326,4.326,0,0,0-3.994-2.68h-.11A23.8,23.8,0,0,0,71.323,2.161H67A23.8,23.8,0,0,0,43.336,23.774h-.11a4.326,4.326,0,0,0-3.994,2.68c-.175-.073-.346-.158-.53-.216A8.646,8.646,0,0,0,21.613,28.1V62.677a12.9,12.9,0,0,0,3.328,8.645H15.129a8.654,8.654,0,0,0-8.645,8.645v8.109a18.784,18.784,0,0,0,5.827,13.6l1.1,1.048a13,13,0,0,0,4.967,7.212l-.709,2.831-3.821.955A15.426,15.426,0,0,0,2.161,128.688v7.474h134Zm-97.7-25.964,1.1-1.046a18.776,18.776,0,0,0,5.829-13.6V86.452a15.072,15.072,0,0,0-4.562-10.806H49.71V88.077a18.784,18.784,0,0,0,5.827,13.6l1.1,1.048a13,13,0,0,0,4.967,7.212l-.709,2.831-3.821.955a15.316,15.316,0,0,0-9.525,7.113,15.316,15.316,0,0,0-9.525-7.113l-3.821-.955-.709-2.831A12.986,12.986,0,0,0,38.46,102.724ZM25.935,41.065h8.645V59.18l-3.127,1.565,1.934,3.867,3.864-1.934H59.36l5.764,8.645h-.285a15.072,15.072,0,0,0-10.806,4.562V71.323H34.581a8.654,8.654,0,0,1-8.645-8.645Zm17.29,4.323h4.323a4.311,4.311,0,0,0,3.806-2.317,15.068,15.068,0,0,0,1.375,1.407l7.465,6.635-1.448,7.242H38.9V41.065a4.327,4.327,0,0,0,4.323,4.323Zm57.845,17.29,3.867,1.934,1.934-3.867-3.13-1.565V41.065h8.645V62.677a8.654,8.654,0,0,1-8.645,8.645H84.29v5.563a16.691,16.691,0,0,0-11.135-5.5l5.807-8.712Zm-9.207,47.749.962,7.69a15.5,15.5,0,0,0-2.051,2.719,15.315,15.315,0,0,0-9.525-7.113l-3.821-.955-.709-2.831a12.984,12.984,0,0,0,4.967-7.212l1.1-1.046a18.776,18.776,0,0,0,5.829-13.6V75.645H99.476a21.569,21.569,0,0,0-8.7,17.29,141.809,141.809,0,0,0,1.089,17.491ZM59.148,90.392a4.322,4.322,0,0,0-2.954,4.1v1.165a14.267,14.267,0,0,1-2.161-7.582V86.452A10.819,10.819,0,0,1,64.839,75.645h7.02A12.446,12.446,0,0,1,84.29,88.077a14.267,14.267,0,0,1-2.161,7.582V94.494a4.317,4.317,0,0,0-2.954-4.1,20.3,20.3,0,0,1-7.893-4.878l-2.12-2.12-2.118,2.118a20.328,20.328,0,0,1-7.9,4.878Zm4.787-35.951.992.882a6.288,6.288,0,0,0,6.4,7.355h2.447l-4.608,6.91-6.35-9.527Zm11.71-.408a2.161,2.161,0,1,1,0,4.323H71.323a2.161,2.161,0,1,1,0-4.323ZM60.516,94.494a24.67,24.67,0,0,0,8.645-5.034,24.67,24.67,0,0,0,8.645,5.034v4.926a8.645,8.645,0,1,1-17.29,0Zm8.645,17.893a12.865,12.865,0,0,0,3.588-.517l.43,1.725-4.018,2.678L65.143,113.6l.43-1.725A12.865,12.865,0,0,0,69.161,112.387Zm-6.886,4.491,3.147,2.1-3.289,2.468-2.95-3.793Zm6.886,4.694,4.377,3.283-4.377,5.626-4.377-5.626Zm7.031-.13L72.9,118.975l3.147-2.1,3.093.774ZM99.419,41.065v17.29H88.613A6.492,6.492,0,0,0,95.1,51.871V45.387A4.327,4.327,0,0,0,99.419,41.065Zm-8.645,4.323v6.484a2.163,2.163,0,0,1-2.161,2.161H81.731a6.477,6.477,0,0,0-2.963-3.486l6.83-6.069A15.319,15.319,0,0,0,86.97,43.07a4.305,4.305,0,0,0,3.8,2.317Zm-8.051-4.141L73.2,49.71h-1.88a6.433,6.433,0,0,0-4.314,1.679L55.6,41.248a11.121,11.121,0,0,1-3.73-8.3A9.48,9.48,0,0,1,54.666,26.2a8.275,8.275,0,0,1,11.7,0l2.795,2.795L71.956,26.2a8.275,8.275,0,0,1,11.7,0,9.477,9.477,0,0,1,2.795,6.748,11.118,11.118,0,0,1-3.728,8.3Zm-49.9,75.632,3.093.774-2.95,3.793-3.289-2.468Zm-6.886,4.694,4.377,3.283-4.377,5.626-4.377-5.626Zm14.193-2.3a10.939,10.939,0,0,1,5.258,9.415v3.151H30.353Zm9.581,9.415a10.939,10.939,0,0,1,5.258-9.417l9.776,12.568H49.71Zm33.645-9.415a10.939,10.939,0,0,1,5.258,9.415v3.151H73.579Zm9.581,9.415a10.939,10.939,0,0,1,5.258-9.417l9.776,12.568H92.935Zm15.464-3.333h7.975l-3.988,5.127Zm11.338-4.323h-14.7l-2.63-3.382.246-.063a8.613,8.613,0,0,0,6.11-5.727,12.744,12.744,0,0,0,7.249,0,8.611,8.611,0,0,0,6.106,5.727l.249.063Zm-7.351-12.968a8.654,8.654,0,0,1-8.645-8.645V95.363a6.474,6.474,0,0,1,4.913-6.289l.177-.045a9.582,9.582,0,0,0,5.345,2.641l5,.715a2.169,2.169,0,0,1,1.857,2.138v4.9A8.654,8.654,0,0,1,112.387,108.065Zm17.29-15.129a137.378,137.378,0,0,1-1.055,16.955l-.651,5.2a15.453,15.453,0,0,0-3.495-1.368l-1.308-.326a4.311,4.311,0,0,1-3.143-3.145l-.08-.316a12.947,12.947,0,0,0,5.408-10.515v-4.9a6.512,6.512,0,0,0-5.565-6.417l-5-.715a5.339,5.339,0,0,1-4.565-5.261V79.968H105.9v2.161a9.546,9.546,0,0,0,.523,3.117,10.791,10.791,0,0,0-7.007,10.117v4.057a12.95,12.95,0,0,0,5.41,10.517l-.078.316A4.317,4.317,0,0,1,101.6,113.4l-1.305.326a15.43,15.43,0,0,0-3.5,1.368l-.651-5.2A137.439,137.439,0,0,1,95.1,92.935a17.29,17.29,0,0,1,34.581,0Zm-28.1-62.677h2.161V28.1a4.323,4.323,0,0,1,8.645,0v8.645h-9.912l-2.161-2.161a3.027,3.027,0,0,1-.895-2.161A2.163,2.163,0,0,1,101.581,30.258ZM95.1,32.411v.015l0,8.639H90.774V28.1H95.1ZM67,6.484h4.323a19.474,19.474,0,0,1,19.326,17.3,4.271,4.271,0,0,0-2.574.962,13.864,13.864,0,0,0-1.362-1.606,12.594,12.594,0,0,0-17.552-.257,12.6,12.6,0,0,0-17.552.255,14.048,14.048,0,0,0-1.362,1.606,4.285,4.285,0,0,0-2.574-.962A19.474,19.474,0,0,1,67,6.484ZM43.226,28.1h4.323v4.861l0,8.107H43.226ZM30.258,23.774A4.327,4.327,0,0,1,34.581,28.1v2.161h2.161A2.163,2.163,0,0,1,38.9,32.419a3.027,3.027,0,0,1-.895,2.161l-2.161,2.161H25.935V28.1A4.327,4.327,0,0,1,30.258,23.774ZM11.548,92.648a14.383,14.383,0,0,1-.741-4.571V79.968a4.327,4.327,0,0,1,4.323-4.323H30.258A10.819,10.819,0,0,1,41.064,86.452v1.625A14.267,14.267,0,0,1,38.9,95.659V95.1a6.492,6.492,0,0,0-6.484-6.484H25.935a2.161,2.161,0,1,1,0-4.323H28.1V79.968H25.935a6.494,6.494,0,0,0-6.4,5.453,10.8,10.8,0,0,0-6.566,9.942v.3a14.465,14.465,0,0,1-1.42-3.011Zm5.743,2.715A6.484,6.484,0,0,1,20.4,89.823a6.489,6.489,0,0,0,5.537,3.112h6.484A2.163,2.163,0,0,1,34.581,95.1v4.323a8.645,8.645,0,1,1-17.29,0Zm8.645,17.024a12.865,12.865,0,0,0,3.588-.517l.43,1.725-4.018,2.678L21.918,113.6l.43-1.725A12.865,12.865,0,0,0,25.935,112.387Zm-6.886,4.491,3.147,2.1L18.9,121.443l-2.95-3.793ZM6.484,128.688a10.939,10.939,0,0,1,5.258-9.417l9.776,12.568H6.484Zm125.355,3.151H116.8l9.776-12.566a10.939,10.939,0,0,1,5.258,9.415Z" transform="translate(226.839 1150.839)" fill="url(#linear-gradient)"/>
  </g>
</svg>
