<svg xmlns="http://www.w3.org/2000/svg" xmlns:xlink="http://www.w3.org/1999/xlink" width="150" height="134" viewBox="0 0 150 134">
  <defs>
    <clipPath id="clip-path">
      <rect id="Image" width="150" height="134" transform="translate(221 1153)" fill="#fff"/>
    </clipPath>
    <linearGradient id="linear-gradient" x1="0.45" x2="0.453" y2="1.076" gradientUnits="objectBoundingBox">
      <stop offset="0" stop-color="#00e6ff"/>
      <stop offset="1" stop-color="#0068ff"/>
    </linearGradient>
    <linearGradient id="linear-gradient-2" x1="-1.422" y1="2.423" x2="1.761" y2="-0.762" gradientUnits="objectBoundingBox">
      <stop offset="0" stop-color="#003f8a"/>
      <stop offset="0.518" stop-color="#00d7df"/>
      <stop offset="1" stop-color="#006df0"/>
    </linearGradient>
    <linearGradient id="linear-gradient-3" x1="-7.454" y1="14.071" x2="6.894" y2="-10.399" xlink:href="#linear-gradient-2"/>
    <linearGradient id="linear-gradient-4" x1="-10.172" y1="4.504" x2="6.315" y2="-1.806" xlink:href="#linear-gradient-2"/>
    <linearGradient id="linear-gradient-5" x1="-1.918" y1="2.918" x2="4.417" y2="-3.417" xlink:href="#linear-gradient-2"/>
    <linearGradient id="linear-gradient-6" x1="-6.522" y1="7.528" x2="2.645" y2="-1.639" xlink:href="#linear-gradient-2"/>
    <linearGradient id="linear-gradient-7" x1="0.083" y1="0.908" x2="2.801" y2="-1.782" xlink:href="#linear-gradient-2"/>
    <linearGradient id="linear-gradient-8" x1="-0.589" y1="1.273" x2="4.138" y2="-2.485" xlink:href="#linear-gradient-2"/>
    <linearGradient id="linear-gradient-9" x1="-0.283" y1="1.565" x2="3.52" y2="-3.072" xlink:href="#linear-gradient-2"/>
    <linearGradient id="linear-gradient-10" x1="-11.852" y1="12.839" x2="2.256" y2="-1.263" xlink:href="#linear-gradient-2"/>
  </defs>
  <g id="Mask_Group_5" data-name="Mask Group 5" transform="translate(-221 -1153)" clip-path="url(#clip-path)">
    <g id="rocket" transform="translate(229.193 1153)">
      <path id="Path_1627" data-name="Path 1627" d="M129.317,4.238a13.379,13.379,0,0,0-12.288-4C102.1,3.6,80.9,11,64.749,27.16A199.592,199.592,0,0,0,47.962,46.376,24.871,24.871,0,0,0,9.946,62.128,2.265,2.265,0,0,0,13.1,64.642a20.464,20.464,0,0,1,21.212,2.8c-.89,1.78-1.7,3.5-2.328,5.074a2.263,2.263,0,0,0,.5,2.444l26.1,26.1a2.265,2.265,0,0,0,2.424.51c1.584-.616,3.315-1.429,5.175-2.362A20.434,20.434,0,0,1,69.4,120.944a2.264,2.264,0,0,0,2.06,3.2,2.152,2.152,0,0,0,.453-.045,24.617,24.617,0,0,0,12.55-6.765,25.019,25.019,0,0,0,2.817-31.846A196.984,196.984,0,0,0,106.385,68.8c16.154-16.156,23.562-37.346,26.934-52.278A13.365,13.365,0,0,0,129.317,4.238ZM21.428,58.324A24.952,24.952,0,0,0,15.66,59,20.381,20.381,0,0,1,45.218,50c-.5.679-.964,1.359-1.442,2.038-.227.326-.471.655-.7.979q-1.43,2.058-2.742,4.076c-.172.261-.326.514-.492.775q-1.038,1.617-1.984,3.186c-.244.406-.48.806-.715,1.207-.21.36-.453.729-.644,1.085A25.142,25.142,0,0,0,21.428,58.324Zm59.83,55.8a20.22,20.22,0,0,1-6.216,4.244A25.139,25.139,0,0,0,70.3,97c.355-.2.724-.435,1.085-.647.4-.227.8-.471,1.2-.716q1.556-.937,3.15-1.965c.283-.184.559-.352.845-.54q2-1.3,4.038-2.736c.339-.226.679-.489,1.025-.733.68-.478,1.343-.949,2.02-1.445A20.471,20.471,0,0,1,81.257,114.125ZM103.18,65.591A192.941,192.941,0,0,1,82.746,83.269c-1.916,1.445-3.818,2.8-5.7,4.094-2.491,1.722-4.959,3.331-7.324,4.742q-2.072,1.236-4.037,2.289c-1.812.961-3.451,1.748-4.959,2.394L36.763,72.828c.679-1.542,1.467-3.193,2.379-4.923a137.638,137.638,0,0,1,11.071-17.05l.05-.065.036-.05a195.568,195.568,0,0,1,17.645-20.38,92.141,92.141,0,0,1,31.3-19.935l23.872,23.863A92.124,92.124,0,0,1,103.18,65.591Zm25.729-50.073a129.028,129.028,0,0,1-4.04,14.108L103.916,8.683a129.12,129.12,0,0,1,14.11-4.037,9,9,0,0,1,8.089,2.783A9.006,9.006,0,0,1,128.909,15.518Zm0,0" fill="url(#linear-gradient)"/>
      <path id="Path_1628" data-name="Path 1628" d="M67.951,36.768a20.38,20.38,0,1,0,28.823,0A20.38,20.38,0,0,0,67.951,36.768Zm25.631,25.62a15.851,15.851,0,1,1,4.645-11.21A15.851,15.851,0,0,1,93.583,62.389Zm0,0" fill="url(#linear-gradient-2)"/>
      <path id="Path_1629" data-name="Path 1629" d="M82.673,60.232a8.946,8.946,0,0,1-3.574-.6,2.265,2.265,0,1,0-1.625,4.226,13.534,13.534,0,0,0,4.884.906h.467a2.265,2.265,0,0,0,2.188-2.339A2.325,2.325,0,0,0,82.673,60.232Zm0,0" fill="url(#linear-gradient-3)"/>
      <path id="Path_1630" data-name="Path 1630" d="M88.769,41.574a2.264,2.264,0,0,0,0,3.2,9.059,9.059,0,0,1,0,12.809,2.265,2.265,0,1,0,3.2,3.2,13.587,13.587,0,0,0,0-19.212A2.264,2.264,0,0,0,88.769,41.574Zm0,0" fill="url(#linear-gradient-4)"/>
      <path id="Path_1631" data-name="Path 1631" d="M47.136,70.395a2.265,2.265,0,0,0-3.2,3.2L59.946,89.608a2.265,2.265,0,0,0,3.2-3.2Zm0,0" fill="url(#linear-gradient-5)"/>
      <path id="Path_1632" data-name="Path 1632" d="M109.858,33.29l-9.605-9.606a2.265,2.265,0,1,0-3.2,3.2l9.605,9.606a2.265,2.265,0,0,0,3.2-3.2Zm0,0" fill="url(#linear-gradient-6)"/>
      <path id="Path_1633" data-name="Path 1633" d="M47.8,94.485a2.264,2.264,0,0,0-.661-1.673l-6.4-6.406a2.264,2.264,0,0,0-3.3.106L14.156,113,.544,130.33a2.264,2.264,0,0,0,3.239,3.134L20.594,119.34l.039-.032,26.4-23.194A2.269,2.269,0,0,0,47.8,94.485Zm-30.136,21.4-.052.045L39.235,91.317l2.99,2.989Zm0,0" fill="url(#linear-gradient-7)"/>
      <path id="Path_1634" data-name="Path 1634" d="M11.382,109.085a2.263,2.263,0,0,0,1.623-.68L35.952,84.781a2.263,2.263,0,0,0-.023-3.17l-6.406-6.4a2.265,2.265,0,0,0-3.585.508L9.407,105.738a2.265,2.265,0,0,0,1.975,3.347ZM28.45,80.531l2.7,2.7-9.661,9.941Zm0,0" fill="url(#linear-gradient-8)"/>
      <path id="Path_1635" data-name="Path 1635" d="M51.94,97.614a2.266,2.266,0,0,0-3.2,0l-23.193,23.2A2.262,2.262,0,0,0,25,123.137l.087.261a2.265,2.265,0,0,0,3.277,1.234l29.51-17.051a2.265,2.265,0,0,0,.469-3.56ZM40.184,112.577l10.148-10.159,2.717,2.718Zm0,0" fill="url(#linear-gradient-9)"/>
      <path id="Path_1636" data-name="Path 1636" d="M119.192,14.352a2.264,2.264,0,0,0-3.19,3.2l4.791,4.8a2.265,2.265,0,0,0,3.2-3.2Zm0,0" fill="url(#linear-gradient-10)"/>
    </g>
  </g>
</svg>
