<svg xmlns="http://www.w3.org/2000/svg" xmlns:xlink="http://www.w3.org/1999/xlink" width="150" height="134" viewBox="0 0 150 134">
  <defs>
    <clipPath id="clip-path">
      <rect id="Image" width="150" height="134" transform="translate(221 1153)" fill="#fff"/>
    </clipPath>
    <linearGradient id="linear-gradient" x1="0.5" x2="0.5" y2="1" gradientUnits="objectBoundingBox">
      <stop offset="0" stop-color="#00e6ff"/>
      <stop offset="1" stop-color="#0068ff"/>
    </linearGradient>
  </defs>
  <g id="Mask_Group_2" data-name="Mask Group 2" transform="translate(-221 -1153)" clip-path="url(#clip-path)">
    <path id="authentication" d="M43.581,79.511a43.2,43.2,0,0,0,31.7-41.738V21.7l-1.951-.181a76.694,76.694,0,0,1-29.3-8.359l-1.017-.546L42,13.16a76.705,76.705,0,0,1-29.3,8.359l-1.951.183V37.773a43.2,43.2,0,0,0,31.7,41.738l.561.153ZM15.057,25.6A80.573,80.573,0,0,0,43.02,17.485,80.573,80.573,0,0,0,70.983,25.6V37.773A39.118,39.118,0,0,1,60.133,64.8,12.934,12.934,0,0,0,55.6,63.233l-4.506-.643-.781-2.34a12.937,12.937,0,0,0,5.261-7.7L58.44,47A15.995,15.995,0,0,0,44.231,23.659H41.8A15.995,15.995,0,0,0,27.6,47l2.867,5.552a12.944,12.944,0,0,0,5.261,7.7l-.781,2.34-4.506.643A12.88,12.88,0,0,0,25.906,64.8a39.114,39.114,0,0,1-10.85-27.023ZM30.918,43.893a11.672,11.672,0,0,1,10.888-15.93h2.428A11.681,11.681,0,0,1,55.164,43.792a6.419,6.419,0,0,0-4.631-3.353l-4.2-.7a6.438,6.438,0,0,1-5.061-4.326l-.512-1.538-4.08,1.362.512,1.538a10.884,10.884,0,0,0,.781,1.787l-2.448.981a8.563,8.563,0,0,0-4.6,4.351Zm3.5,3.635a4.286,4.286,0,0,1,2.7-3.994L40.961,42a10.728,10.728,0,0,0,4.663,1.983l4.2.7a2.146,2.146,0,0,1,1.8,2.121v2.8a8.6,8.6,0,1,1-17.208,0Zm5.242,14.53a12.819,12.819,0,0,0,3.358.46h.009a12.819,12.819,0,0,0,3.358-.46L47.16,64.4a4.748,4.748,0,0,1-8.281,0Zm-10.387,5.9a8.673,8.673,0,0,1,1.779-.471l4.289-.613a9.075,9.075,0,0,0,15.367,0l4.289.613a8.673,8.673,0,0,1,1.779.471A38.161,38.161,0,0,1,43.024,75.2,38.127,38.127,0,0,1,29.271,67.96Zm20.2,50.344h4.3v4.3h-4.3Zm0-8.6h4.3V114h-4.3Zm76.814-50.114L105.48,82.712l-8.055-8.058,3.041-3.041,4.85,4.848,17.771-19.755Zm9.226,9.245A23.661,23.661,0,1,0,98.289,88.19H62.379V79.722a51.252,51.252,0,0,0,21.51-41.949V12.906H80.52A68.523,68.523,0,0,1,44.16,2.478l-1.14-.712-1.14.712A68.523,68.523,0,0,1,5.519,12.906H2.151V37.773a51.252,51.252,0,0,0,21.51,41.949v12.77h6.453v4.3H23.661V114h6.453v4.3H23.661v7.782l19.359,9.679,17.716-8.858h74.777V88.19h-10.1A23.638,23.638,0,0,0,135.512,68.832ZM58.077,102.643l-4.3-1.076V92.021l4.3-1.075ZM6.453,37.773V17.2A72.806,72.806,0,0,0,43.02,6.823,72.806,72.806,0,0,0,79.586,17.2V37.773A47.006,47.006,0,0,1,43.02,83.835,47.006,47.006,0,0,1,6.453,37.773Zm21.51,84.833h6.453V109.7H27.963v-8.6h6.453V88.19H27.963V82.465a52.1,52.1,0,0,0,12.906,5.225v42.192l-12.906-6.453Zm17.208,7.275V87.689a51.932,51.932,0,0,0,12.906-5.225v4.046l-8.6,2.151v16.266l8.6,2.151v16.35ZM131.21,92.492v30.114H62.379V92.492Zm-19.359-4.3A19.359,19.359,0,1,1,131.21,68.832,19.383,19.383,0,0,1,111.851,88.19ZM70.983,105.4h5.562l-2.781-2.781,3.041-3.041,2.781,2.781V96.794h4.3v5.562l2.781-2.781,3.041,3.041L86.93,105.4h5.562v4.3H86.93l2.781,2.781-3.041,3.042-2.781-2.781V118.3h-4.3v-5.562l-2.781,2.781-3.041-3.042,2.781-2.781H70.983Zm35.676,4.3H101.1v-4.3h5.562l-2.781-2.781,3.041-3.041,2.781,2.781V96.794H114v5.562l2.781-2.781,3.041,3.041-2.781,2.781h5.562v4.3h-5.562l2.781,2.781-3.041,3.042L114,112.742V118.3h-4.3v-5.562l-2.781,2.781-3.041-3.042Z" transform="translate(227.168 1151.234)" fill="url(#linear-gradient)"/>
  </g>
</svg>
