<svg width="29" height="29" viewBox="0 0 29 29" fill="none" xmlns="http://www.w3.org/2000/svg">
<circle cx="14.5" cy="14.5" r="13.5" fill="#FFAA2B" stroke="black" stroke-width="2"/>
<rect x="5.68555" y="6.08572" width="3.80001" height="7.60003" rx="1" fill="#121212"/>
<rect x="10.0287" y="5" width="3.80001" height="8.14289" rx="1" fill="#121212"/>
<rect x="14.3713" y="5" width="3.80001" height="8.14289" rx="1" fill="#121212"/>
<rect x="18.7145" y="6.08572" width="3.80001" height="7.60003" rx="1" fill="#121212"/>
<path d="M5.14282 15.0429L5.95711 14.2286H13.8286L14.6429 15.0429V16.9429L13.8286 18.0287H11.9286L10.8428 18.8429V20.4715L10.3 21.5572H5.95711L5.14282 20.4715V15.0429Z" fill="#121212"/>
<path d="M16 14.2286H21.7L22.7857 15.0429V20.4715L21.7 21.5572H19.2572L18.1714 22.3715V24.0001H9.75712V22.3715H10.8428L11.3857 21.5572L11.9286 20.4715V18.8429H14.6429L15.4571 16.9429V15.0429L16 14.2286Z" fill="#121212"/>
</svg>
